<?xml version="1.0" encoding="UTF-8" standalone="no"?>
<!-- Created with Inkscape (http://www.inkscape.org/) -->

<svg
   width="300"
   height="200"
   viewBox="0 0 79.374998 52.916668"
   version="1.1"
   id="svg5"
   inkscape:version="1.1.1 (3bf5ae0d25, 2021-09-20)"
   sodipodi:docname="dashboard.svg"
   xmlns:inkscape="http://www.inkscape.org/namespaces/inkscape"
   xmlns:sodipodi="http://sodipodi.sourceforge.net/DTD/sodipodi-0.dtd"
   xmlns="http://www.w3.org/2000/svg"
   xmlns:svg="http://www.w3.org/2000/svg">
  <sodipodi:namedview
     id="namedview7"
     pagecolor="#505050"
     bordercolor="#eeeeee"
     borderopacity="1"
     inkscape:pageshadow="0"
     inkscape:pageopacity="0"
     inkscape:pagecheckerboard="0"
     inkscape:document-units="mm"
     showgrid="false"
     units="px"
     showguides="true"
     inkscape:guide-bbox="true"
     inkscape:zoom="1.184265"
     inkscape:cx="161.28147"
     inkscape:cy="58.686189"
     inkscape:window-width="1366"
     inkscape:window-height="697"
     inkscape:window-x="-8"
     inkscape:window-y="-8"
     inkscape:window-maximized="1"
     inkscape:current-layer="layer1" />
  <defs
     id="defs2" />
  <g
     inkscape:label="Camada 1"
     inkscape:groupmode="layer"
     id="layer1">
    <path
       style="fill:#002878;stroke:none;stroke-width:0.0626701;fill-opacity:1"
       d="M 48.213437,14.464209 H 24.148114 v 20.054437 h 15.103497 c 1.26e-4,0.958163 0.260708,1.880981 0.636102,2.757485 2.595545,6.059887 11.379388,6.258112 14.41845,0.501362 1.265184,-2.396632 1.233912,-5.423159 -0.139818,-7.771095 -0.332402,-0.568167 -0.727161,-1.098293 -1.190229,-1.566753 -0.225362,-0.227995 -0.647508,-0.495408 -0.731862,-0.817155 -0.236141,-0.900569 -0.01993,-2.13586 -0.01993,-3.068391 v -6.643032 c 0.45937,-0.03754 0.923256,-0.201923 1.316071,-0.443016 2.908018,-1.784587 1.704878,-6.477529 -1.754763,-6.513127 -0.53069,-0.0055 -1.084444,0.107722 -1.566753,0.333371 -0.547925,0.256359 -1.029168,0.676995 -1.37611,1.170472 -0.40886,0.581671 -0.623443,1.29608 -0.629334,2.005442 m 3.133506,-2.487995 c 3.203759,-0.461854 3.980117,4.510631 0.752042,4.976 -3.20376,0.461816 -3.980116,-4.510638 -0.752042,-4.976 m -2.945495,3.490718 c 0.07333,0.308718 0.50625,0.837359 0.419514,1.128062 -0.08511,0.285525 -0.466329,0.548175 -0.670195,0.752041 l -1.566752,1.566753 c -0.206812,0.206811 -0.456865,0.563466 -0.752041,0.640676 -0.771784,0.201923 -1.84789,-0.09877 -2.186059,-0.891358 -0.118697,-0.278191 0.08129,-0.63422 0.0126,-0.940049 -0.199417,-0.887159 -1.166981,-1.49744 -2.025436,-1.105966 -0.497288,0.226766 -0.891608,0.739407 -0.926702,1.293976 -0.01555,0.24504 0.141884,0.51778 0.04193,0.752039 -0.123961,0.290539 -0.462881,0.532947 -0.681976,0.752042 -0.494028,0.49403 -0.967125,1.047533 -1.504083,1.494558 -0.318113,0.264844 -0.578007,0.0626 -0.94005,0.08555 -0.507128,0.03208 -0.981729,0.367747 -1.230403,0.801361 -0.57337,0.999653 0.378339,2.412676 1.543753,2.150778 0.644999,-0.144957 1.197375,-0.724969 1.240052,-1.398736 0.01555,-0.24504 -0.141884,-0.51778 -0.04193,-0.752042 0.161939,-0.379465 0.645062,-0.715127 0.932656,-1.00272 0.405601,-0.405601 0.909908,-1.144545 1.441412,-1.371348 0.207063,-0.08837 1.012123,-0.05748 1.253403,-0.03134 0.33071,0.03579 0.869611,0.60671 0.995327,0.901323 0.112367,0.263401 -0.07608,0.592483 -0.02576,0.877382 0.151224,0.855697 1.061193,1.523572 1.913256,1.218994 0.558328,-0.199541 1.013878,-0.74151 1.052044,-1.344334 0.01735,-0.273619 -0.158681,-0.559332 -0.009,-0.814713 0.475478,-0.811515 1.487977,-1.528274 2.153157,-2.193453 0.199165,-0.199166 0.512641,-0.657473 0.814712,-0.68229 0.426282,-0.03497 1.084756,0.491961 1.566752,0.55695 v 9.149836 c -0.59474,-0.216401 -1.140282,-0.549179 -1.754762,-0.725282 -1.945032,-0.557388 -4.091106,-0.412682 -5.890992,0.556636 -0.909719,0.489955 -1.555785,1.216489 -2.381464,1.798069 v -2.193454 h -3.008165 v 6.016332 h 1.128062 l -0.06267,1.002721 h -14.1008 V 15.466932 h 23.250612 m -22.24789,1.002721 v 1.002722 h 1.002721 v -1.002722 h -1.002721 m 2.005443,0 v 1.002722 h 7.019053 v -1.002722 h -7.019053 m 13.913706,1.030862 c 0.61636,-0.154106 0.860961,0.79334 0.248799,0.946443 -0.61636,0.154107 -0.861025,-0.793341 -0.248799,-0.946443 m -15.919149,0.974583 v 1.002721 h 1.002721 v -1.002721 h -1.002721 m 2.005443,0 v 1.002721 h 7.019053 v -1.002721 h -7.019053 m -2.005443,2.005442 v 1.002723 h 1.002721 V 20.48054 h -1.002721 m 2.005443,0 v 1.002723 h 7.019053 V 20.48054 h -7.019053 m 16.92187,0.02814 c 0.616361,-0.154106 0.861025,0.793342 0.248802,0.946444 -0.616362,0.154107 -0.861026,-0.79334 -0.248802,-0.946444 m -7.520413,1.504082 c 0.61636,-0.154105 0.861025,0.793343 0.2488,0.946445 -0.61636,0.154105 -0.861024,-0.793341 -0.2488,-0.946445 m -11.4069,0.473223 v 1.002722 h 1.002721 v -1.002722 h -1.002721 m 2.005443,0 v 1.002722 h 7.019053 v -1.002722 h -7.019053 m 6.016331,2.005445 v 8.021774 h 3.008165 v -8.021778 h -3.008165 m 2.005443,1.002721 v 6.016331 h -1.002721 v -6.016331 h 1.002721 m 10.528579,1.504083 v 2.068112 c -2.415306,0.05014 -4.349931,2.414053 -4.506608,4.70026 -0.0564,0.822107 0.221602,1.544066 0.433052,2.318794 l -1.754763,1.002721 c -1.341768,-3.270438 -0.566162,-7.042052 2.569474,-9.010144 1.028667,-0.645627 2.089297,-0.862466 3.258845,-1.079743 m 6.831043,10.089887 -1.754763,-1.002721 c 0.211449,-0.774728 0.489453,-1.496687 0.43305,-2.318794 -0.156738,-2.28677 -2.092241,-4.650185 -4.506608,-4.70026 V 26.99823 c 1.251774,0.232505 2.360157,0.481181 3.446856,1.195682 3.011613,1.980063 3.679864,5.728551 2.381465,8.894205 M 26.153558,27.499594 v 5.01361 h 3.008165 v -5.01361 h -3.008165 m 14.038104,0 -0.02444,2.632144 -0.53959,1.378743 h -0.438691 v -4.010887 h 1.002721 m -12.032661,1.002721 v 3.008166 h -1.002722 v -3.008166 h 1.002722 m 2.005444,0 v 4.010889 h 3.008166 v -4.010889 h -3.008166 m 2.005443,1.002723 v 2.005443 h -1.002721 v -2.005443 h 1.002721 m 14.539466,0.519473 c 4.146756,-0.538838 6.229536,5.219291 2.632145,7.410552 -0.518281,0.315732 -1.091338,0.50136 -1.692094,0.575186 -4.133782,0.507691 -6.126441,-5.244172 -2.569474,-7.410741 0.493528,-0.300628 1.055867,-0.500421 1.629423,-0.574997 m 0.125342,1.012121 c -0.530503,0.08285 -1.008551,0.262087 -1.441415,0.584211 -2.393245,1.780834 -0.782749,5.805132 2.193455,5.377785 0.471592,-0.06775 0.920875,-0.216211 1.316073,-0.488388 2.493957,-1.717287 1.021962,-5.95623 -2.068113,-5.473608 m 0.06267,0.994011 c 2.570665,-0.370568 3.207832,3.601149 0.6267,3.973285 -2.568786,0.370318 -3.208585,-3.601087 -0.6267,-3.973285 m -3.697538,4.932139 c 2.047433,2.687168 5.974343,2.687168 8.021775,0 0.471404,0.136056 0.896495,0.43988 1.316009,0.68868 0.125843,0.07464 0.354213,0.162316 0.381912,0.327389 0.0445,0.265032 -0.368626,0.623192 -0.525112,0.801364 -0.611912,0.696452 -1.402621,1.226642 -2.2382,1.614756 -2.023243,0.939802 -4.297667,0.802931 -6.267011,-0.188887 -0.718326,-0.361731 -1.395853,-0.881016 -1.924664,-1.48854 -0.14483,-0.166453 -0.503931,-0.492838 -0.462631,-0.738693 0.0277,-0.165073 0.25607,-0.252749 0.381912,-0.327389 0.419513,-0.2488 0.844606,-0.552624 1.31601,-0.68868 z"
       id="path1102" />
  </g>
</svg>
