<?xml version="1.0" encoding="utf-8"?>
<svg viewBox="0 0 1617.1428 1471.4285" xmlns="http://www.w3.org/2000/svg">
  <g id="layer1" transform="matrix(1, 0, 0, 1, 814.285705566406, 341.9235534667971)">
    <g>
      <g>
        <path style="opacity:1;fill:none;fill-opacity:1;stroke:#002878;stroke-width:34;stroke-linecap:round;stroke-linejoin:round;stroke-miterlimit:4;stroke-dasharray:none;stroke-opacity:1" d="M -163.716 -97.835 C -173.733 -102.57 -185.61 -98.318 -190.345 -88.301 L -202.555 -62.471 C -207.29 -52.454 -203.037 -40.577 -193.02 -35.842 L 44.625 76.492 C 54.642 81.227 66.518 76.975 71.254 66.958 L 83.463 41.128 C 88.198 31.111 83.946 19.234 73.929 14.499 L -163.716 -97.835 Z M -178.647 -29.108 L -330.053 291.195 L -123.407 388.876 L 28 68.573 L -178.647 -29.108 Z M -20.66 186.789 C -26.946 181.414 -76.292 288.247 -68.629 293.622 L 592.482 610.346 C 603.852 615.721 617.334 610.894 622.709 599.523 L 654.588 532.084 C 659.963 520.713 655.135 507.232 643.764 501.857 L -20.66 186.789 Z M -349.987 284.74 C -360.004 280.005 -371.881 284.258 -376.616 294.275 L -388.826 320.107 C -393.561 330.124 -389.309 342 -379.292 346.735 L -141.647 459.07 C -131.63 463.805 -119.753 459.552 -115.018 449.535 L -102.808 423.703 C -98.073 413.686 -102.325 401.81 -112.342 397.075 L -349.987 284.74 Z" id="rect17215"/>
      </g>
    </g>
    <path style="opacity:1;fill:none;fill-opacity:1;stroke:#002878;stroke-width:34;stroke-linecap:round;stroke-linejoin:round;stroke-miterlimit:4;stroke-dasharray:none;stroke-opacity:1" d="M -574.523 632.361 C -590.22 632.361 -602.857 644.999 -602.857 660.695 L -602.857 701.172 C -602.857 702.056 472.66 704.578 -602.732 703.791 L -631.547 703.791 C -650.475 703.791 -657.688 720.815 -665.715 737.957 L -688.572 786.768 C -696.599 803.909 -673.332 820.934 -654.404 820.934 L -71.309 820.934 C -52.381 820.934 -27.581 803.103 -37.143 786.768 L -65.715 737.957 C -75.277 721.622 -80.953 703.791 -99.881 703.791 L -128.695 703.791 C -128.617 702.928 -128.572 702.056 -128.572 701.172 L -128.572 660.695 C -128.572 644.999 -141.208 632.361 -156.904 632.361 L -574.523 632.361 Z" id="rect17225"/>
  </g>
</svg>