<?xml version="1.0" encoding="UTF-8" standalone="no"?>
<!-- Created with Inkscape (http://www.inkscape.org/) -->

<svg
   width="300"
   height="200"
   viewBox="0 0 79.374998 52.916668"
   version="1.1"
   id="svg5"
   inkscape:version="1.1.1 (3bf5ae0d25, 2021-09-20)"
   sodipodi:docname="analise.svg"
   xmlns:inkscape="http://www.inkscape.org/namespaces/inkscape"
   xmlns:sodipodi="http://sodipodi.sourceforge.net/DTD/sodipodi-0.dtd"
   xmlns="http://www.w3.org/2000/svg"
   xmlns:svg="http://www.w3.org/2000/svg">
  <sodipodi:namedview
     id="namedview7"
     pagecolor="#505050"
     bordercolor="#eeeeee"
     borderopacity="1"
     inkscape:pageshadow="0"
     inkscape:pageopacity="0"
     inkscape:pagecheckerboard="0"
     inkscape:document-units="mm"
     showgrid="false"
     units="px"
     showguides="true"
     inkscape:guide-bbox="true"
     inkscape:zoom="1.184265"
     inkscape:cx="123.28322"
     inkscape:cy="74.729898"
     inkscape:window-width="1366"
     inkscape:window-height="697"
     inkscape:window-x="-8"
     inkscape:window-y="-8"
     inkscape:window-maximized="1"
     inkscape:current-layer="layer1" />
  <defs
     id="defs2" />
  <g
     inkscape:label="Camada 1"
     inkscape:groupmode="layer"
     id="layer1">
    <path
       style="fill:#002878;fill-opacity:1;stroke:none;stroke-width:0.0604762"
       d="m 27.579323,32.752875 c -0.486864,0 -0.966706,-0.02213 -1.278818,0.425753 -0.284474,0.408275 -0.172611,1.037833 -0.172611,1.509487 v 3.38667 c -0.478119,0 -1.183055,-0.130387 -1.629546,0.05407 -0.341865,0.141152 -0.385068,0.649394 -0.05572,0.833847 0.263808,0.147743 0.668602,0.07971 0.959547,0.07971 h 2.177144 c 0,0.815099 -0.333683,2.434169 0.604811,2.828595 0.460962,0.193706 1.140352,0.07427 1.63281,0.07427 h 3.507622 12.216201 3.930955 c 0.519975,0 1.278771,0.138249 1.753569,-0.102084 0.918937,-0.465244 0.544529,-2.365226 0.544529,-3.224109 v -6.59191 c 0,-0.768291 -0.25267,-2.065506 0.03647,-2.775618 0.104442,-0.256359 0.473226,-0.402953 0.689247,-0.552088 0.400837,-0.276799 0.752385,-0.609237 1.08313,-0.966107 1.088754,-1.174933 1.615744,-2.831135 1.576918,-4.414766 -0.03683,-1.504891 -0.698501,-3.045402 -1.753146,-4.112384 -0.410331,-0.41517 -1.289777,-0.802036 -1.570447,-1.282701 -0.474859,-0.813043 0.337881,-2.134177 -0.222613,-2.950636 -0.704669,-1.026542 -1.861882,-1.901379 -2.742416,-2.781907 -0.361346,-0.36137 -0.783409,-0.969595 -1.270001,-1.155488 -0.336671,-0.12861 -0.794174,-0.05404 -1.149049,-0.05404 h -2.298097 -7.922387 -6.047624 c -0.654867,0 -1.769922,-0.218787 -2.28671,0.262483 -0.423793,0.394664 -0.313769,1.028981 -0.313769,1.551804 v 3.930946 16.026203 M 46.93172,11.949049 v 2.298097 c 0,0.46098 -0.03985,0.905015 0.313751,1.258613 0.353605,0.353605 0.797621,0.313769 1.258632,0.313769 H 50.8022 v 1.753811 c -1.210311,-0.249827 -2.284732,-0.405372 -3.507622,-0.09204 -4.965765,1.27242 -6.18926,7.667601 -2.41905,10.899149 1.738813,1.490377 3.797424,1.606673 5.926672,1.167192 V 40.977644 H 28.546943 v -1.93524 h 8.890008 2.177144 c 0.293189,0 0.652539,0.04022 0.867411,-0.205256 0.221041,-0.252549 0.09078,-0.591518 -0.203321,-0.708298 -0.439058,-0.174474 -1.103692,-0.05407 -1.571233,-0.05407 v -6.289529 c 0,-0.780991 0.229265,-1.996805 -0.07426,-2.721431 -0.10916,-0.260592 -0.330382,-0.481814 -0.590974,-0.590974 -0.676971,-0.283573 -2.520529,-0.253033 -2.990066,0.351488 -0.505642,0.651027 -0.215175,2.169283 -0.215175,2.960917 h -1.935239 c -0.175926,-1.127338 -1.316629,-0.96762 -2.177145,-0.96762 -0.402409,0 -0.857934,-0.0658 -1.208636,0.172599 -0.603952,0.410573 -0.484699,1.126975 -0.484699,1.76264 h -0.48381 V 11.949049 h 18.384777 m 1.028096,0.725715 2.116669,2.177144 h -2.177145 c 0,-0.628166 -0.182094,-1.599016 0.06048,-2.177144 m -15.178387,2.211767 c -0.409243,0.122071 -0.466816,0.710221 -0.0583,0.878962 0.460587,0.190252 1.196946,0.05403 1.690009,0.05403 h 3.810003 c 0.455204,0 1.352551,0.170235 1.729983,-0.121509 0.84703,-0.654842 -0.643649,-0.846111 -1.004268,-0.846111 h -4.172861 c -0.606456,0 -1.411757,-0.139246 -1.994567,0.03462 m -1.93524,1.93524 c -0.4471,0.133368 -0.4471,0.764994 0,0.898344 0.633247,0.188928 1.516563,0.03465 2.175996,0.03465 h 4.656671 c 0.561703,0 1.815496,0.233136 2.274269,-0.121497 0.276135,-0.213481 0.22219,-0.658822 -0.100451,-0.792087 -0.401441,-0.165826 -1.019569,-0.05404 -1.448104,-0.05404 h -5.14048 c -0.729948,0 -1.717465,-0.174329 -2.417901,0.03462 m 17.536961,1.416807 v 4.838099 h -4.838107 c 0.150223,-0.623631 0.223581,-1.224523 0.503162,-1.814287 0.883679,-1.863938 2.459267,-2.572055 4.334937,-3.023812 m 1.028096,0 c 1.160781,0.352697 2.139166,0.546645 3.084228,1.401295 2.043069,1.847549 2.269129,5.212689 0.48387,7.307283 h -0.06048 l -2.419049,-2.419049 -1.086879,-1.149049 -0.06217,-1.330477 v -2.600478 l 0.06048,-1.209525 m -18.565057,0.518463 c -0.4471,0.13335 -0.4471,0.764964 0,0.898314 0.633247,0.188927 1.516563,0.03465 2.175996,0.03465 h 4.656671 c 0.561703,0 1.815496,0.233135 2.274269,-0.121497 0.276135,-0.213481 0.22219,-0.658828 -0.100451,-0.792057 -0.401441,-0.165887 -1.019569,-0.05407 -1.448104,-0.05407 h -5.14048 c -0.729948,0 -1.717465,-0.174353 -2.417901,0.03465 m 0,1.935239 c -0.409242,0.122041 -0.466816,0.710173 -0.0583,0.878902 0.296213,0.122403 0.710475,0.05407 1.02477,0.05407 h 2.177145 c 0.321552,0 0.787703,0.08285 1.07563,-0.08811 0.430047,-0.25527 0.204773,-0.807599 -0.229023,-0.868076 -0.83554,-0.116416 -1.756593,-0.01143 -2.600418,-0.01143 -0.429684,0 -0.975542,-0.08896 -1.389805,0.03465 m 5.80572,0.0024 c -0.576279,0.141575 -0.345743,1.051622 0.238155,0.888638 0.569868,-0.159052 0.347315,-1.032511 -0.238155,-0.888638 m -3.87048,2.900441 c -0.409243,0.122041 -0.466816,0.710172 -0.0583,0.878901 0.460587,0.190258 1.196946,0.05407 1.690009,0.05407 h 3.810003 c 0.455204,0 1.352551,0.17024 1.729983,-0.121497 0.84703,-0.654837 -0.643649,-0.846123 -1.004268,-0.846123 h -4.172861 c -0.606456,0 -1.411757,-0.139277 -1.994567,0.03465 m 14.876006,0.449157 -2.842383,2.902859 h -0.06048 c -0.74742,-0.876865 -0.949592,-1.823439 -1.209519,-2.902819 h 4.112384 m 4.596194,3.568098 v 0.06048 c -1.891696,1.612297 -4.881642,1.612297 -6.773338,0 l 2.479525,-2.540002 0.907144,-0.773672 0.907144,0.773672 2.479525,2.479526 m -21.40744,-2.082015 c -0.409242,0.122041 -0.466816,0.710172 -0.0583,0.878901 0.296213,0.122404 0.710475,0.05407 1.02477,0.05407 h 2.177145 c 0.321552,0 0.787703,0.08285 1.07563,-0.08811 0.430047,-0.255271 0.204773,-0.8076 -0.229023,-0.868076 -0.83554,-0.116417 -1.756593,-0.01143 -2.600418,-0.01143 -0.429684,0 -0.975542,-0.08896 -1.389805,0.03465 m 5.80572,0.0024 c -0.576279,0.141574 -0.345743,1.051621 0.238155,0.888637 0.569868,-0.159052 0.347315,-1.03251 -0.238155,-0.888637 m 1.087423,3.833407 v 8.708579 h -1.93524 v -8.708579 h 1.93524 m -5.805719,2.41905 v 6.289529 h -1.93524 v -6.289529 h 1.93524 m 12.943064,0.03465 c -0.447101,0.13335 -0.447101,0.764963 0,0.898314 0.666811,0.198966 1.602258,0.03465 2.296948,0.03465 0.280066,0 0.638871,0.05679 0.900794,-0.06102 0.43682,-0.196487 0.330442,-0.792844 -0.114905,-0.885796 -0.619035,-0.129177 -1.363497,-0.0208 -1.995414,-0.0208 -0.340783,0 -0.758069,-0.06362 -1.087423,0.03465 M 34.836471,32.75286 v 5.32191 h -1.935239 v -5.32191 h 1.935239 m -5.805719,0.96762 v 4.35429 h -1.935239 v -4.35429 h 1.935239 m 13.910685,0.03465 c -0.409243,0.122041 -0.466817,0.710173 -0.0583,0.878901 0.35675,0.147381 0.886824,0.05407 1.266675,0.05407 h 2.660955 c 0.378883,0 0.980259,0.112123 1.317535,-0.08811 0.430047,-0.25527 0.204773,-0.807599 -0.229023,-0.868076 -1.047872,-0.145989 -2.207141,-0.01143 -3.265657,-0.01143 -0.51816,0 -1.193498,-0.114118 -1.692185,0.03465 m 0,1.93524 c -0.409243,0.122041 -0.466817,0.710172 -0.0583,0.878901 0.35675,0.147381 0.886824,0.05407 1.266675,0.05407 h 2.660955 c 0.378883,0 0.980259,0.112123 1.317535,-0.08811 0.430047,-0.25527 0.204773,-0.8076 -0.229023,-0.868076 -1.047872,-0.14599 -2.207141,-0.01143 -3.265657,-0.01143 -0.51816,0 -1.193498,-0.114119 -1.692185,0.03465 m 0,1.93524 c -0.409243,0.122041 -0.466817,0.710172 -0.0583,0.878901 0.45073,0.186206 1.843679,0.19304 2.288421,-0.007 0.397148,-0.178647 0.360378,-0.74797 -0.05528,-0.871946 -0.515681,-0.153852 -1.659166,-0.153852 -2.174846,0 m 3.870479,0.0024 c -0.576278,0.141575 -0.345743,1.051621 0.238155,0.888638 0.569868,-0.159053 0.347315,-1.032511 -0.238155,-0.888638 z"
       id="path3935" />
  </g>
</svg>
