<?xml version="1.0" encoding="UTF-8" standalone="no"?>
<!-- Created with Inkscape (http://www.inkscape.org/) -->

<svg
   width="300"
   height="200"
   viewBox="0 0 79.374998 52.916668"
   version="1.1"
   id="svg5"
   inkscape:version="1.1.1 (3bf5ae0d25, 2021-09-20)"
   sodipodi:docname="app.svg"
   xmlns:inkscape="http://www.inkscape.org/namespaces/inkscape"
   xmlns:sodipodi="http://sodipodi.sourceforge.net/DTD/sodipodi-0.dtd"
   xmlns="http://www.w3.org/2000/svg"
   xmlns:svg="http://www.w3.org/2000/svg">
  <sodipodi:namedview
     id="namedview7"
     pagecolor="#505050"
     bordercolor="#eeeeee"
     borderopacity="1"
     inkscape:pageshadow="0"
     inkscape:pageopacity="0"
     inkscape:pagecheckerboard="0"
     inkscape:document-units="mm"
     showgrid="false"
     units="px"
     showguides="true"
     inkscape:guide-bbox="true"
     inkscape:zoom="1.6748036"
     inkscape:cx="121.80533"
     inkscape:cy="120.31262"
     inkscape:window-width="1366"
     inkscape:window-height="697"
     inkscape:window-x="-8"
     inkscape:window-y="-8"
     inkscape:window-maximized="1"
     inkscape:current-layer="layer1" />
  <defs
     id="defs2" />
  <g
     inkscape:label="Camada 1"
     inkscape:groupmode="layer"
     id="layer1">
    <path
       style="fill:#e6d11f;stroke:none;stroke-width:0.0604762;fill-opacity:1"
       d="m 33.014909,11.000494 c -2.047725,0.322318 -1.814287,2.333449 -1.814287,3.904404 v 12.155724 9.97858 c 0,1.156305 -0.353726,3.004096 0.350097,3.991431 0.86475,1.213033 2.526092,0.907144 3.822763,0.907144 h 7.378102 c 1.184729,0 2.522948,0.173023 3.68905,-0.03725 1.984286,-0.357778 1.753811,-2.41911 1.753811,-3.954179 v -12.27668 -9.918103 c 0,-1.197587 0.330019,-2.984345 -0.455325,-3.991202 -0.868318,-1.113138 -2.6006,-0.786421 -3.838488,-0.786421 h -7.257149 c -1.172815,0 -2.470152,-0.155793 -3.628574,0.02655 m 14.393345,3.48107 H 31.986813 c 0,-0.85485 -0.244929,-2.011192 0.604823,-2.540329 0.757162,-0.471489 2.276084,-0.181102 3.144704,-0.181102 h 7.740959 c 0.908655,0 2.535829,-0.311203 3.326132,0.181102 0.841346,0.524069 0.604823,1.69651 0.604823,2.540329 m 0,0.786191 V 35.587772 H 31.986813 V 15.267755 H 47.408254 M 42.14797,17.3586 c -0.349008,0.10408 -0.362434,0.442868 -0.363946,0.751538 -0.0036,0.725655 -6e-5,1.45143 -6e-5,2.177145 0,0.272325 -0.06223,0.657619 0.112365,0.890271 0.189048,0.251944 0.579362,0.198301 0.855255,0.198301 0.795262,6.1e-5 2.036779,0.235495 2.778399,-0.06241 0.313751,-0.126093 0.304438,-0.497599 0.305829,-0.784256 0.0035,-0.725654 6e-5,-1.45143 6e-5,-2.177145 0,-0.272143 0.06036,-0.663666 -0.152037,-0.876059 -0.212393,-0.212392 -0.603916,-0.152037 -0.876059,-0.152037 -0.800464,0 -1.892241,-0.19437 -2.659806,0.03465 m -6.955916,0.233136 c -1.516623,0.217775 -2.287695,2.199581 -0.906237,3.176031 0.550939,0.389406 1.230147,0.366183 1.873857,0.366183 0.871765,0 1.802312,0.09241 2.660954,-0.07946 1.472052,-0.294641 1.768628,-2.314184 0.604702,-3.147668 -0.508303,-0.364006 -1.158725,-0.340965 -1.75375,-0.340965 -0.809173,0 -1.678156,-0.08914 -2.479526,0.02588 m 9.857627,0.518402 v 2.479526 h -2.479526 v -2.479526 h 2.479526 m -8.587626,0.241905 v 1.995716 c -0.527897,0 -1.226519,0.12192 -1.690916,-0.181126 -0.650301,-0.424301 -0.519975,-1.447499 0.17901,-1.740325 0.432284,-0.181066 1.050533,-0.07427 1.511906,-0.07427 m 0.786191,1.995716 v -1.995716 c 0.490644,0 1.192531,-0.127242 1.632616,0.126396 0.680177,0.391946 0.653204,1.431956 -0.06029,1.774191 -0.439602,0.210881 -1.09589,0.09513 -1.572322,0.09513 m 4.790565,2.887257 c -0.3123,0.141635 -0.254847,0.583475 -0.254847,0.86227 v 2.056192 c 0,0.26023 -0.05812,0.614257 0.10535,0.837717 0.190681,0.260532 0.580571,0.190379 0.86227,0.190379 h 1.995716 c 0.24771,0 0.615829,0.06604 0.838624,-0.06217 0.28835,-0.165947 0.249827,-0.562006 0.249948,-0.844974 v -2.056192 c 0,-0.279461 0.05667,-0.664453 -0.152037,-0.887913 -0.201991,-0.216263 -0.60948,-0.140183 -0.876059,-0.140183 h -1.874764 c -0.266095,0 -0.646611,-0.06743 -0.894201,0.04487 m -7.088662,0.228358 c -1.509971,0.322157 -1.838417,2.32253 -0.604763,3.186009 0.81008,0.567026 2.262114,0.290286 3.205241,0.290286 0.410513,0 0.869648,0.05661 1.270001,-0.04602 1.45022,-0.371566 1.817976,-2.357606 0.544044,-3.186493 -0.821448,-0.53455 -2.203693,-0.275107 -3.144522,-0.275107 -0.410634,0 -0.866806,-0.05473 -1.270001,0.03133 m 10.099532,2.932009 h -2.479526 v -1.693334 l 0.06217,-0.689248 1.086879,-0.09694 1.233533,0.06217 0.09694,0.663545 v 1.753811 m -8.587626,-2.237621 v 1.995716 c -0.465304,0 -1.147597,0.125368 -1.572322,-0.08811 -0.6578,-0.330623 -0.739262,-1.293344 -0.115389,-1.705369 0.463672,-0.306191 1.161023,-0.202233 1.687711,-0.202233 m 0.786191,1.995716 v -1.995716 c 0.526687,0 1.222406,-0.108736 1.692427,0.181913 0.616858,0.381484 0.5891,1.378193 -0.06048,1.711719 -0.445286,0.228661 -1.143605,0.102084 -1.631951,0.102084 m 4.899724,2.877036 c -0.349008,0.10408 -0.362434,0.442868 -0.363946,0.751539 -0.0036,0.725654 -6e-5,1.451429 -6e-5,2.177144 0,0.272325 -0.06223,0.657679 0.112365,0.890271 0.198543,0.264644 0.627138,0.198302 0.915731,0.198302 0.800464,0 1.892241,0.19437 2.659806,-0.03465 0.349008,-0.10408 0.362434,-0.442868 0.363946,-0.751538 0.0036,-0.725655 6e-5,-1.45143 6e-5,-2.177145 0,-0.272325 0.06223,-0.657679 -0.112365,-0.890271 -0.198543,-0.264644 -0.627138,-0.198301 -0.915731,-0.198301 -0.800464,0 -1.892241,-0.194371 -2.659806,0.03465 m -6.955916,0.233136 c -1.539604,0.221102 -2.262175,2.189361 -0.906902,3.183712 0.486169,0.356688 1.115121,0.358503 1.693093,0.358503 0.90672,0 1.889278,0.106317 2.781907,-0.06628 1.484208,-0.28696 1.880085,-2.29084 0.665178,-3.160851 -0.508303,-0.364007 -1.158725,-0.340965 -1.75375,-0.340965 -0.809173,0 -1.678156,-0.08914 -2.479526,0.02588 m 9.857627,0.518403 v 2.479526 h -2.479526 v -2.479526 h 2.479526 m -8.587626,0.241905 v 1.995716 c -0.461373,0 -1.079622,0.106801 -1.511906,-0.07427 -0.742467,-0.31109 -0.811773,-1.378979 -0.120711,-1.78671 0.442021,-0.260774 1.137316,-0.134741 1.632617,-0.134741 m 0.786191,1.995716 v -1.995716 c 0.476432,0 1.13272,-0.115752 1.572322,0.09513 0.713498,0.342235 0.740471,1.382245 0.06029,1.774191 -0.440085,0.253638 -1.141972,0.126396 -1.632616,0.126396 m 10.160008,4.354289 v 2.963336 c 0,0.560856 0.03066,1.090084 -0.425934,1.498964 -0.686224,0.614559 -2.219599,0.315323 -3.081688,0.315323 h -8.285237 c -0.914461,0 -2.556633,0.323548 -3.260032,-0.369208 -0.432284,-0.425752 -0.368542,-0.94736 -0.368542,-1.505556 v -2.902859 h 15.421441 m -7.801435,0.877994 c -2.058611,0.153791 -1.879722,3.309865 0.181429,3.168048 2.031881,-0.139821 1.841985,-3.319239 -0.181429,-3.168048 m -0.06048,0.775668 c 1.012372,-0.181852 1.338279,1.427119 0.302381,1.598448 -1.047448,0.173204 -1.347713,-1.410609 -0.302381,-1.598448 z"
       id="path1975" />
  </g>
</svg>
