<?xml version="1.0" encoding="UTF-8" standalone="no"?>
<!-- Created with Inkscape (http://www.inkscape.org/) -->

<svg
   width="200"
   height="300"
   viewBox="0 0 52.916666 79.375002"
   version="1.1"
   id="svg5"
   inkscape:version="1.1.1 (3bf5ae0d25, 2021-09-20)"
   sodipodi:docname="capacidade.svg"
   xmlns:inkscape="http://www.inkscape.org/namespaces/inkscape"
   xmlns:sodipodi="http://sodipodi.sourceforge.net/DTD/sodipodi-0.dtd"
   xmlns="http://www.w3.org/2000/svg"
   xmlns:svg="http://www.w3.org/2000/svg">
  <sodipodi:namedview
     id="namedview7"
     pagecolor="#505050"
     bordercolor="#eeeeee"
     borderopacity="1"
     inkscape:pageshadow="0"
     inkscape:pageopacity="0"
     inkscape:pagecheckerboard="0"
     inkscape:document-units="mm"
     showgrid="false"
     units="px"
     inkscape:zoom="1.184265"
     inkscape:cx="59.108393"
     inkscape:cy="155.79284"
     inkscape:window-width="1366"
     inkscape:window-height="697"
     inkscape:window-x="-8"
     inkscape:window-y="-8"
     inkscape:window-maximized="1"
     inkscape:current-layer="layer1" />
  <defs
     id="defs2">
    <filter
       inkscape:label="Cross Noise"
       inkscape:menu="Overlays"
       inkscape:menu-tooltip="Adds a small scale screen like graininess"
       style="color-interpolation-filters:sRGB;"
       id="filter8749"
       x="0"
       y="0"
       width="1"
       height="1">
      <feTurbulence
         type="fractalNoise"
         numOctaves="5"
         baseFrequency="1"
         seed="0"
         result="result0"
         id="feTurbulence8737" />
      <feConvolveMatrix
         kernelMatrix="-2 0 -2 0 -10 0 -2 0 -2 "
         order="3 3"
         result="result5"
         id="feConvolveMatrix8739" />
      <feColorMatrix
         result="result4"
         values="0"
         type="saturate"
         in="result5"
         id="feColorMatrix8741" />
      <feComposite
         in2="result4"
         in="SourceGraphic"
         operator="arithmetic"
         k1="1.5"
         k2="0.5"
         k3="0.5"
         result="result2"
         id="feComposite8743" />
      <feBlend
         result="result6"
         in2="result4"
         mode="normal"
         id="feBlend8745" />
      <feComposite
         in2="SourceGraphic"
         in="result6"
         operator="in"
         result="result3"
         id="feComposite8747" />
    </filter>
  </defs>
  <g
     inkscape:label="Camada 1"
     inkscape:groupmode="layer"
     id="layer1">
    <rect
       style="fill:#05285b;stroke-width:0.0556645;stroke-linecap:round;stroke-linejoin:round"
       id="rect846"
       width="52.916668"
       height="79.375"
       x="-6.357829e-07"
       y="0" />
    <rect
       style="opacity:0.593592;fill:#05285b;stroke-width:2.42387;stroke-linecap:round;stroke-linejoin:round;filter:url(#filter8749)"
       id="rect8639"
       width="2304.2188"
       height="3456.3281"
       x="-1125.6511"
       y="-1688.4766"
       transform="matrix(0.02296512,0,0,0.02296512,25.850716,38.776072)" />
    <path
       style="fill:#e6d11f;fill-opacity:1;stroke:none;stroke-width:0.0445437"
       d="m 23.69646,30.511354 c -0.430381,0.06356 -0.852345,0.263401 -1.247226,0.439251 -0.14548,0.06479 -0.350381,0.225547 -0.515639,0.207493 -0.686687,-0.07502 -1.198673,-1.227641 -1.978813,-0.965045 -0.339068,0.114129 -0.601516,0.474378 -0.846333,0.719195 l -1.559033,1.559033 c -0.24879,0.248791 -0.586053,0.502676 -0.573123,0.890877 0.02235,0.671007 0.815851,1.110565 0.988796,1.724512 0.04256,0.151048 -0.0967,0.328021 -0.158169,0.458134 -0.181227,0.383567 -0.273941,0.826108 -0.471324,1.196758 -0.109167,0.20499 -0.385752,0.197328 -0.587967,0.237551 -0.414762,0.08245 -1.136212,0.105703 -1.446232,0.415685 -0.268848,0.268865 -0.201891,0.700139 -0.201891,1.045353 v 2.449909 c 0,0.334746 -0.05844,0.740452 0.201891,1.00081 0.375229,0.375192 1.509893,0.472654 2.0253,0.513679 0.06356,0.430383 0.263401,0.852345 0.439251,1.247227 0.06479,0.145479 0.225547,0.350382 0.207493,0.515638 -0.07629,0.698226 -1.326549,1.27048 -0.927891,2.067902 0.155917,0.311896 0.483545,0.558757 0.726585,0.801789 l 1.469945,1.469946 c 0.244832,0.244812 0.51328,0.603835 0.890877,0.617644 0.489758,0.01791 1.038983,-0.523346 1.425401,-0.780987 0.333053,-0.222006 0.860364,-0.451986 0.988696,-0.861166 0.242139,-0.772077 0.03581,-1.907899 0.03581,-2.717171 0,-0.349715 0.06869,-0.783882 -0.06606,-1.113595 -0.155189,-0.379736 -0.52713,-0.674749 -0.744014,-1.024508 -0.493412,-0.795685 -0.81435,-1.68977 -0.878581,-2.628085 -0.300761,-4.391796 4.628813,-7.31406 8.370225,-5.15443 2.246521,1.296759 3.316241,4.13518 2.463495,6.579832 -0.183387,0.525662 -0.445527,1.019118 -0.771365,1.469946 -0.204368,0.282763 -0.518357,0.539871 -0.599516,0.890875 -0.187484,0.811188 -0.02356,1.839661 -0.02356,2.672629 0,0.338799 -0.08009,0.800407 0.07007,1.113551 0.118932,0.248108 0.378309,0.388021 0.59809,0.53457 0.470783,0.313901 1.01444,0.825663 1.559032,0.988873 0.66807,0.200179 1.331816,-0.8062 1.737208,-1.211592 0.415685,-0.415683 0.83395,-0.828961 1.247049,-1.247226 0.244635,-0.247709 0.476352,-0.520674 0.365438,-0.890877 -0.164678,-0.549581 -0.906199,-1.024106 -0.967446,-1.584691 -0.01769,-0.161738 0.143964,-0.366239 0.207483,-0.508867 0.17586,-0.394882 0.375683,-0.81689 0.439248,-1.247227 0.522632,-0.04161 1.643399,-0.131761 2.025318,-0.513679 0.268821,-0.268867 0.201872,-0.700139 0.201872,-1.045353 v -2.405366 c 0,-0.331317 0.06267,-0.737155 -0.169267,-1.009853 -0.352787,-0.414702 -1.537607,-0.507756 -2.057923,-0.54918 -0.06356,-0.430383 -0.263388,-0.852346 -0.439248,-1.247227 -0.06481,-0.14548 -0.22557,-0.350383 -0.207483,-0.515639 0.06806,-0.623301 0.928781,-1.055243 0.994172,-1.711551 0.03822,-0.383211 -0.280982,-0.646152 -0.525616,-0.890875 L 33.718819,30.82316 c -0.23724,-0.237227 -0.496129,-0.589483 -0.846332,-0.65283 -0.755686,-0.136687 -1.217784,0.913617 -1.896497,0.987768 -0.173854,0.019 -0.400761,-0.162214 -0.553411,-0.2321 -0.374793,-0.171613 -0.793282,-0.354186 -1.202683,-0.414644 -0.04161,-0.522641 -0.131761,-1.643383 -0.51368,-2.0253 -0.268866,-0.268847 -0.700139,-0.201891 -1.045354,-0.201891 h -2.405365 c -0.331317,0 -0.737155,-0.06267 -1.009853,0.169274 -0.414703,0.352767 -0.507754,1.537601 -0.549181,2.057917 m 4.008943,-0.890876 c 0.06575,0.508957 0.122362,1.548356 0.539202,1.890532 0.397108,0.326006 1.087136,0.373616 1.554357,0.594162 0.363745,0.171698 0.874885,0.59265 1.291771,0.528956 0.514791,-0.07865 1.152881,-0.652454 1.559032,-0.964636 h 0.04454 l 1.737209,1.737209 v 0.04454 c -0.306193,0.398355 -1.010608,1.165133 -0.969941,1.692665 0.0396,0.513366 0.521476,1.071322 0.700318,1.559034 0.142363,0.388288 0.195815,0.992435 0.541075,1.256135 0.425972,0.325346 1.259207,0.335994 1.777564,0.436528 v 2.494454 c -0.508467,0.09581 -1.360991,0.111625 -1.777564,0.429802 -0.343166,0.262142 -0.400895,0.877648 -0.547267,1.262863 -0.182004,0.478935 -0.65515,1.05395 -0.694126,1.559032 -0.04067,0.527532 0.663748,1.29431 0.969941,1.692665 v 0.04454 l -1.737209,1.737208 h -0.04454 c -0.265614,-0.204188 -0.760986,-0.39399 -0.934172,-0.682677 -0.152206,-0.253589 -0.04579,-0.808828 -0.04579,-1.099074 0,-0.496976 -0.119422,-1.171501 0.0229,-1.648122 0.07768,-0.26018 0.331762,-0.489091 0.481742,-0.7127 0.271272,-0.404324 0.509447,-0.838626 0.688958,-1.29177 0.464682,-1.172927 0.615241,-2.454365 0.391095,-3.697136 -0.166059,-0.920631 -0.508422,-1.799882 -1.020944,-2.58354 -0.474614,-0.725707 -1.1009,-1.383977 -1.810972,-1.883268 -3.875757,-2.725413 -9.342574,-0.708737 -10.626906,3.843194 -0.392679,1.391772 -0.28548,2.885593 0.222587,4.231662 0.283743,0.751722 0.903525,1.332528 1.19012,2.049015 0.176572,0.441474 0.03817,1.174531 0.03817,1.64812 0,0.300181 0.111403,0.881656 -0.04579,1.143619 -0.173186,0.288687 -0.668558,0.478489 -0.934173,0.682677 h -0.04454 l -1.737209,-1.737208 v -0.04454 c 0.31218,-0.406151 0.885984,-1.044241 0.964636,-1.559034 0.0637,-0.416884 -0.35726,-0.928025 -0.528957,-1.291769 -0.22055,-0.467221 -0.268154,-1.157249 -0.594163,-1.554357 -0.342175,-0.41684 -1.381569,-0.473457 -1.890532,-0.539202 v -2.494454 c 0.518615,-0.06699 1.535791,-0.123431 1.890532,-0.542765 0.32824,-0.387978 0.375946,-1.088518 0.594163,-1.550792 0.171697,-0.363745 0.592659,-0.874885 0.528957,-1.291772 -0.07865,-0.514793 -0.652456,-1.152881 -0.964636,-1.559033 v -0.04454 l 1.737209,-1.737209 h 0.04454 c 0.398356,0.306203 1.165132,1.010597 1.692664,0.969927 0.505082,-0.03894 1.080099,-0.512097 1.559034,-0.694107 0.386551,-0.146901 0.993282,-0.203132 1.256136,-0.547273 0.331673,-0.434241 0.334656,-1.252216 0.436529,-1.777561 h 2.494452 m -0.489981,9.354199 h -1.51449 c -0.07533,-0.595329 -0.178621,-1.187316 -0.261472,-1.781754 -0.04125,-0.296216 -0.03848,-0.665616 -0.17684,-0.934751 -0.277863,-0.540672 -0.864548,-0.34508 -1.254352,-0.0702 -0.185303,0.130647 -0.364457,0.280403 -0.526953,0.438579 -0.238755,0.232429 -0.449448,0.504725 -0.622099,0.789093 -0.865887,1.426247 -0.823972,3.24898 0.109889,4.632556 0.228598,0.338622 0.500138,0.622364 0.816443,0.87925 0.177063,0.143787 0.42045,0.252028 0.44281,0.502276 0.155191,1.735872 0.0026,3.55642 0.0026,5.300044 0,0.559603 -0.201516,1.614402 0.139555,2.085318 0.220092,0.303832 0.596888,0.275503 0.929496,0.275503 h 2.138103 c 0.317063,0 0.698847,0.05808 0.971723,-0.139556 0.291094,-0.210914 0.275504,-0.564147 0.275504,-0.884951 v -2.093558 -3.296243 c 0,-0.384279 -0.12205,-1.017201 0.02686,-1.372662 0.153943,-0.367396 0.810385,-0.698848 1.073996,-1.032703 0.741208,-0.938805 1.028338,-2.168169 0.839561,-3.340785 -0.165791,-1.029541 -0.732656,-1.95574 -1.539522,-2.60755 -0.349447,-0.282319 -0.862948,-0.620896 -1.283397,-0.262943 -0.250024,0.212876 -0.244502,0.566107 -0.287708,0.866022 -0.0984,0.68299 -0.213142,1.364465 -0.299735,2.049016 M 24.18642,37.861081 c 0.149488,0.620764 0.0184,1.726697 0.469135,2.212536 0.220625,0.23773 0.523212,0.237375 0.822636,0.237375 h 1.915383 c 0.329579,0 0.672566,0.0088 0.899784,-0.275504 0.412075,-0.51564 0.285837,-1.548744 0.43653,-2.174407 h 0.04454 c 0.638938,1.152171 0.878092,2.510222 -0.05795,3.608048 -0.370071,0.434035 -1.211815,0.720497 -1.343887,1.291771 -0.159958,0.691988 -0.02356,1.561528 -0.02356,2.271735 v 4.721642 h -1.781732 v -4.721642 c 0,-0.710207 0.136394,-1.579747 -0.02356,-2.271735 -0.129445,-0.559915 -0.936489,-0.833816 -1.305001,-1.247226 -0.842455,-0.945086 -0.964195,-2.699668 -0.05229,-3.652593 z"
       id="path994" />
  </g>
</svg>
