<?xml version="1.0" encoding="UTF-8" standalone="no"?>
<!-- Created with Inkscape (http://www.inkscape.org/) -->

<svg
   width="300"
   height="200"
   viewBox="0 0 79.374998 52.916668"
   version="1.1"
   id="svg5"
   inkscape:version="1.1.1 (3bf5ae0d25, 2021-09-20)"
   sodipodi:docname="ecommerce.svg"
   xmlns:inkscape="http://www.inkscape.org/namespaces/inkscape"
   xmlns:sodipodi="http://sodipodi.sourceforge.net/DTD/sodipodi-0.dtd"
   xmlns="http://www.w3.org/2000/svg"
   xmlns:svg="http://www.w3.org/2000/svg">
  <sodipodi:namedview
     id="namedview7"
     pagecolor="#505050"
     bordercolor="#eeeeee"
     borderopacity="1"
     inkscape:pageshadow="0"
     inkscape:pageopacity="0"
     inkscape:pagecheckerboard="0"
     inkscape:document-units="mm"
     showgrid="false"
     units="px"
     showguides="true"
     inkscape:guide-bbox="true"
     inkscape:zoom="1.184265"
     inkscape:cx="151.14861"
     inkscape:cy="122.86102"
     inkscape:window-width="1366"
     inkscape:window-height="697"
     inkscape:window-x="-8"
     inkscape:window-y="-8"
     inkscape:window-maximized="1"
     inkscape:current-layer="layer1" />
  <defs
     id="defs2" />
  <g
     inkscape:label="Camada 1"
     inkscape:groupmode="layer"
     id="layer1">
    <path
       style="fill:#002878;stroke:none;stroke-width:0.073319;fill-opacity:1"
       d="m 34.29281,37.554602 c -0.01767,0.854533 -0.201628,1.716911 -0.296942,2.566165 -0.02977,0.265048 -0.004,0.78312 -0.248112,0.951094 -0.463376,0.318938 -1.339758,-0.04714 -1.871321,0.107192 -0.345552,0.100301 -0.520931,0.520492 -0.295475,0.81912 0.204926,0.271354 0.575701,0.248332 0.878875,0.248845 h 2.272889 9.458151 2.566165 c 0.34108,-1.47e-4 0.796318,0.04128 0.99186,-0.308966 0.167167,-0.299362 -0.0184,-0.667057 -0.335141,-0.758999 -0.468435,-0.136006 -1.673213,0.245399 -1.974481,-0.201774 -0.166874,-0.247671 -0.129775,-0.71486 -0.160789,-1.00315 -0.08622,-0.802623 -0.274433,-1.611479 -0.281105,-2.419527 h 8.944919 c 1.20727,0 2.754008,0.264535 3.726511,-0.620866 1.276851,-1.162252 0.745948,-3.834217 0.745948,-5.391293 v -14.6638 c 0,-1.602387 0.593737,-4.616964 -0.809442,-5.753394 -0.856952,-0.693994 -1.976167,-0.552041 -3.003146,-0.552041 h -6.158797 -16.86337 c -2.801593,0 -5.633129,-0.120749 -8.431686,0.0029 -2.803073,0.123836 -2.272889,3.421197 -2.272889,5.349399 v 14.443843 3.73927 c 0,0.782607 -0.07436,1.562867 0.316245,2.272889 0.73438,1.334919 2.269936,1.173104 3.569662,1.173104 H 34.29281 M 23.001683,11.697093 c 0.858654,-0.150898 1.841356,-0.0241 2.712803,-0.0241 h 5.498926 17.010008 6.158797 c 0.736416,0 1.864869,-0.212874 2.485147,0.267534 0.479433,0.371309 0.447613,0.948946 0.447613,1.492122 v 3.372675 14.370524 c 0,1.3685 0.195322,2.901307 -0.01569,4.252503 -0.0761,0.487791 -0.46323,0.874402 -0.937457,0.98746 -0.807536,0.192389 -1.81076,0.03901 -2.639484,0.03901 H 48.22342 30.700179 24.68802 c -0.71486,0 -1.750315,0.196128 -2.322108,-0.332282 -0.457063,-0.422464 -0.390695,-1.00887 -0.390695,-1.574012 V 31.175848 16.951962 c 0,-1.353323 -0.259183,-3.004767 0.02862,-4.325822 0.108783,-0.499302 0.502022,-0.841914 0.997842,-0.929047 m 1.319742,22.411516 V 14.019201 h 21.555787 5.059012 c 0.458097,0 1.441451,0.187059 1.563381,-0.440984 0.150744,-0.776984 -0.966051,-0.658801 -1.416743,-0.658801 h -5.20565 -15.690267 -4.545778 c -0.60035,0 -1.487914,-0.16342 -2.049706,0.06551 -0.567364,0.231204 -0.369821,1.205166 -0.369821,1.694145 v 5.132331 11.511083 2.712804 c 2.2e-5,0.365128 -0.05832,0.8483 0.308944,1.066278 0.353823,0.210059 1.390077,0.216071 1.727242,-0.0294 0.407778,-0.296942 0.176369,-0.881148 -0.276816,-0.952707 -0.213131,-0.03365 -0.44424,-0.01085 -0.659585,-0.01085 M 54.968769,14.019201 V 34.108609 H 33.412982 28.35397 c -0.449401,0 -1.460529,-0.185864 -1.573528,0.441013 -0.139871,0.775862 0.976902,0.658772 1.42689,0.658772 h 5.20565 15.836905 4.472459 c 0.570275,0 1.444751,0.163061 1.971914,-0.07398 0.559351,-0.251558 0.374294,-1.192974 0.374294,-1.685678 v -5.05901 -11.584402 -2.786123 c -1.47e-4,-0.343726 0.04876,-0.806098 -0.303028,-1.003158 -0.346505,-0.194046 -1.410877,-0.212573 -1.733188,0.03112 -0.40714,0.307823 -0.176332,0.871506 0.276853,0.955295 0.212405,0.03928 0.444387,0.01675 0.659578,0.01675 M 37.738803,29.269554 h 4.985692 c -0.287264,1.547398 1.190261,3.231169 2.709871,2.013927 0.71464,-0.572475 0.554658,-1.23022 0.540507,-2.013927 -0.007,-0.384191 0.223697,-0.861645 -0.319011,-1.00315 -0.71684,-0.186891 -1.677319,-0.02332 -2.418134,-0.02332 H 37.95876 c -0.87213,0 -1.86201,0.129262 -2.712803,-0.07332 0.212258,-0.363589 0.377226,-1.007843 0.727838,-1.254561 0.387857,-0.272894 1.499227,-0.172886 1.984965,-0.232715 1.734214,-0.213651 3.473121,-0.39321 5.205649,-0.618299 0.765304,-0.09949 1.630835,-0.08131 2.272816,-0.572915 1.062246,-0.813474 1.091647,-2.486174 1.334479,-3.700263 0.141066,-0.705549 0.579,-1.782898 0.444093,-2.49248 -0.06393,-0.336387 -0.366741,-0.479433 -0.678714,-0.506707 -0.799837,-0.0698 -1.616464,-0.06159 -2.419527,-0.08131 -1.856877,-0.04546 -3.716613,-0.208006 -5.572244,-0.289317 -1.429281,-0.06254 -2.905046,4.4e-4 -4.325748,-0.162255 -0.4438,-0.05088 -0.574381,-0.351491 -0.883054,-0.623211 -0.39167,-0.34482 -0.877629,-0.621672 -1.316589,-0.902631 -0.353105,-0.226042 -0.844269,-0.42371 -1.083729,0.07545 -0.347312,0.724025 1.28037,1.288141 1.649825,1.696601 0.257569,0.284845 0.315711,0.727691 0.417918,1.086295 l 1.319742,4.619097 c 0.17076,0.598796 0.568369,1.366886 0.59667,1.979613 0.02588,0.559864 -0.566316,1.146563 -0.705915,1.686337 -0.140773,0.54454 0.254563,0.78378 0.306766,1.258887 0.06283,0.572255 -0.227728,1.016642 0.06489,1.600554 0.519172,1.035778 2.052932,1.226481 2.820655,0.353031 0.454211,-0.516752 0.450325,-1.182269 0.332062,-1.819411 M 36.63902,21.717697 h -1.906294 l -0.659871,-2.346208 0.07332,-0.07332 c 0.6106,0.145391 1.466746,-0.126109 2.021111,0.18799 0.398856,0.225969 0.453038,1.795729 0.471735,2.231537 m 3.079398,-2.126251 v 2.126251 h -1.979613 l -0.366595,-2.19957 2.346208,0.07332 m 3.226036,0.146638 -0.146638,1.979613 h -2.052932 v -2.052932 l 2.19957,0.07332 m 3.079398,0.146638 c -0.05132,0.397609 -0.09656,1.500253 -0.420704,1.757603 -0.32253,0.25603 -1.303245,0.07537 -1.705547,0.07537 l 0.146638,-1.906294 1.979613,0.07332 m -9.164875,2.93276 0.439914,2.859441 c -0.379719,0.0078 -0.883567,0.187843 -1.230733,-0.02332 -0.59645,-0.362709 -0.880415,-2.180214 -0.968837,-2.836126 h 1.759656 m 2.859441,2.566165 -1.319742,0.146638 -0.439914,-2.712803 1.642126,0.07537 0.11753,0.657818 v 1.832975 m 2.93276,-2.566165 c -2.93e-4,0.42789 0.08014,1.923964 -0.264168,2.197517 -0.30618,0.243273 -1.254782,0.214018 -1.642126,0.22201 v -1.686337 l 0.11753,-0.657818 1.788764,-0.07537 m 2.786122,0 c -0.176039,1.363074 -0.517339,1.812152 -1.832975,2.126251 l 0.146638,-2.126251 h 1.686337 m -9.528317,6.557212 c 0.786492,-0.222523 1.131458,0.960405 0.362342,1.163572 -0.714787,0.188797 -1.102205,-0.954173 -0.362342,-1.163572 m 8.209968,0.01246 c 0.763178,-0.289903 1.187035,0.827771 0.435369,1.126986 -0.721753,0.287338 -1.135345,-0.861058 -0.435369,-1.126986 m -0.22135,8.167444 0.439914,3.592631 h -9.384832 l 0.439914,-3.592631 c 0.476427,0 1.622843,-0.211892 2.01158,0.07537 0.240266,0.177505 0.243786,0.689125 0.360216,0.951094 0.321651,0.723658 1.062026,1.306471 1.880706,1.306471 0.81868,0 1.559055,-0.582813 1.880706,-1.306471 0.11643,-0.261969 0.11995,-0.773589 0.360216,-0.951094 0.388737,-0.287264 1.535153,-0.07537 2.01158,-0.07537 m -3.226036,0 c -0.128015,1.565434 -1.924917,1.565434 -2.052932,0 z"
       id="path2510" />
  </g>
</svg>
