<?xml version="1.0" encoding="UTF-8" standalone="no"?>
<!-- Created with Inkscape (http://www.inkscape.org/) -->

<svg
   width="200"
   height="300"
   viewBox="0 0 52.916666 79.375002"
   version="1.1"
   id="svg5"
   inkscape:version="1.1.1 (3bf5ae0d25, 2021-09-20)"
   sodipodi:docname="eficiencia.svg"
   xmlns:inkscape="http://www.inkscape.org/namespaces/inkscape"
   xmlns:sodipodi="http://sodipodi.sourceforge.net/DTD/sodipodi-0.dtd"
   xmlns="http://www.w3.org/2000/svg"
   xmlns:svg="http://www.w3.org/2000/svg">
  <sodipodi:namedview
     id="namedview7"
     pagecolor="#505050"
     bordercolor="#eeeeee"
     borderopacity="1"
     inkscape:pageshadow="0"
     inkscape:pageopacity="0"
     inkscape:pagecheckerboard="0"
     inkscape:document-units="mm"
     showgrid="false"
     units="px"
     inkscape:zoom="0.5921325"
     inkscape:cx="65.863637"
     inkscape:cy="83.596155"
     inkscape:window-width="1366"
     inkscape:window-height="697"
     inkscape:window-x="-8"
     inkscape:window-y="-8"
     inkscape:window-maximized="1"
     inkscape:current-layer="layer1" />
  <defs
     id="defs2">
    <filter
       inkscape:label="Cross Noise"
       inkscape:menu="Overlays"
       inkscape:menu-tooltip="Adds a small scale screen like graininess"
       style="color-interpolation-filters:sRGB;"
       id="filter8749"
       x="0"
       y="0"
       width="1"
       height="1">
      <feTurbulence
         type="fractalNoise"
         numOctaves="5"
         baseFrequency="1"
         seed="0"
         result="result0"
         id="feTurbulence8737" />
      <feConvolveMatrix
         kernelMatrix="-2 0 -2 0 -10 0 -2 0 -2 "
         order="3 3"
         result="result5"
         id="feConvolveMatrix8739" />
      <feColorMatrix
         result="result4"
         values="0"
         type="saturate"
         in="result5"
         id="feColorMatrix8741" />
      <feComposite
         in2="result4"
         in="SourceGraphic"
         operator="arithmetic"
         k1="1.5"
         k2="0.5"
         k3="0.5"
         result="result2"
         id="feComposite8743" />
      <feBlend
         result="result6"
         in2="result4"
         mode="normal"
         id="feBlend8745" />
      <feComposite
         in2="SourceGraphic"
         in="result6"
         operator="in"
         result="result3"
         id="feComposite8747" />
    </filter>
  </defs>
  <g
     inkscape:label="Camada 1"
     inkscape:groupmode="layer"
     id="layer1">
    <rect
       style="fill:#05285b;stroke-width:0.0556645;stroke-linecap:round;stroke-linejoin:round"
       id="rect846"
       width="52.916668"
       height="79.375"
       x="-6.357829e-07"
       y="0" />
    <rect
       style="opacity:0.593592;fill:#05285b;stroke-width:2.42387;stroke-linecap:round;stroke-linejoin:round;filter:url(#filter8749)"
       id="rect8639"
       width="2304.2188"
       height="3456.3281"
       x="-1125.6511"
       y="-1688.4766"
       transform="matrix(0.02296512,0,0,0.02296512,25.850716,38.776072)" />
    <path
       style="fill:#e6d11f;fill-opacity:1;stroke:none;stroke-width:0.0468426"
       d="m 16.097441,34.563349 h -0.0937 c -0.13532,-0.569648 -0.96998,-1.490288 -1.43723,-0.608248 -0.24495,0.46243 0.12614,1.079251 0.30596,1.498255 0.19688,0.458778 0.37588,1.330746 0.8504,1.571239 0.61893,0.31375 1.77068,-0.442944 2.34194,-0.688258 0.23759,-0.102071 0.5093,-0.193319 0.66146,-0.416571 0.28425,-0.417035 0.0267,-1.002193 -0.47409,-1.066506 -0.32356,-0.04154 -0.59121,0.139964 -0.89001,0.225359 0.66944,-1.146936 1.25827,-2.258694 2.24843,-3.181095 3.10041,-2.888288 7.82447,-3.727393 11.61693,-1.676059 1.85421,1.002935 3.35658,2.520276 4.33358,4.388728 0.35726,0.683291 0.47339,1.488983 0.8321,2.154705 0.22832,0.423782 0.82504,0.511098 1.14497,0.138 0.42622,-0.497001 -0.10591,-1.549454 -0.31534,-2.058493 -0.79492,-1.932343 -2.07334,-3.621276 -3.74688,-4.876527 -4.33934,-3.254799 -10.45499,-2.93735 -14.52115,0.600677 -1.11236,0.967873 -2.50513,2.511812 -2.85738,3.994794 m 8.47848,5.808464 v 5.152666 c 0,0.521261 -0.19145,1.478485 0.33225,1.801888 0.84817,0.523698 1.74792,-1.135883 2.18566,-1.66136 1.28353,-1.540834 2.5694,-3.081343 3.83443,-4.637401 0.36532,-0.449361 1.27252,-1.182349 0.79051,-1.824796 -0.23519,-0.313467 -0.61045,-0.283111 -0.95966,-0.283111 h -2.15475 v -5.15267 c 0,-0.521262 0.19145,-1.478508 -0.33225,-1.801875 -0.84073,-0.51912 -1.75959,1.131326 -2.18801,1.661351 -1.26053,1.559428 -2.5672,3.081477 -3.83208,4.637397 -0.36786,0.4525 -1.27548,1.178416 -0.79052,1.824795 0.2352,0.313469 0.61045,0.283116 0.95966,0.283116 h 2.15476 m 2.62317,-5.855306 v 4.122136 c 0,0.475729 -0.13285,1.170594 0.28972,1.508327 0.48238,0.385464 1.55957,0.178 2.14609,0.178 l -1.10436,1.405271 -2.50251,3.04476 h -0.0469 v -4.122137 c 0,-0.475728 0.13284,-1.170589 -0.28972,-1.508322 -0.48238,-0.385468 -1.55958,-0.178004 -2.14609,-0.178004 0.24598,-0.551849 0.80134,-1.030158 1.1803,-1.498957 0.77556,-0.959522 1.54251,-2.143133 2.47342,-2.951074 m 8.38478,9.555858 c -0.35346,1.038075 -1.0494,2.001057 -1.77223,2.810543 -3.32473,3.723364 -9.18004,4.504647 -13.26418,1.538679 -1.3485,-0.979287 -2.48553,-2.244173 -3.23357,-3.740271 -0.32928,-0.65856 -0.43599,-1.554888 -0.82896,-2.15452 -0.27957,-0.426592 -0.91923,-0.440038 -1.1959,0 -0.15649,0.248874 -0.0683,0.582348 0.006,0.842929 0.18762,0.662869 0.43655,1.304562 0.74449,1.920541 1.3464,2.69316 3.62588,4.64972 6.42898,5.705737 3.95045,1.488276 8.65287,0.417178 11.7106,-2.430984 1.21786,-1.134335 1.91103,-2.467658 2.71686,-3.883703 0.0951,0.245126 0.17674,0.547308 0.38355,0.72334 0.35535,0.302415 0.91389,0.167134 1.09823,-0.255105 0.13307,-0.304943 -0.009,-0.606795 -0.13038,-0.889819 -0.22025,-0.51461 -0.43417,-1.031797 -0.65578,-1.545799 -0.1077,-0.249715 -0.23056,-0.500839 -0.50825,-0.592652 -0.52032,-0.172003 -1.26408,0.321998 -1.73316,0.51883 -0.4044,0.169709 -1.08497,0.322695 -1.25238,0.776505 -0.39802,1.078872 0.93633,0.916191 1.48659,0.655749 z"
       id="path1466" />
  </g>
</svg>
