<?xml version="1.0" encoding="UTF-8" standalone="no"?>
<!-- Created with Inkscape (http://www.inkscape.org/) -->

<svg
   width="200"
   height="300"
   viewBox="0 0 52.916666 79.375002"
   version="1.1"
   id="svg5"
   inkscape:version="1.1.1 (3bf5ae0d25, 2021-09-20)"
   sodipodi:docname="exclusividade.svg"
   xmlns:inkscape="http://www.inkscape.org/namespaces/inkscape"
   xmlns:sodipodi="http://sodipodi.sourceforge.net/DTD/sodipodi-0.dtd"
   xmlns="http://www.w3.org/2000/svg"
   xmlns:svg="http://www.w3.org/2000/svg">
  <sodipodi:namedview
     id="namedview7"
     pagecolor="#505050"
     bordercolor="#eeeeee"
     borderopacity="1"
     inkscape:pageshadow="0"
     inkscape:pageopacity="0"
     inkscape:pagecheckerboard="0"
     inkscape:document-units="mm"
     showgrid="false"
     units="px"
     inkscape:zoom="1.184265"
     inkscape:cx="-86.129371"
     inkscape:cy="153.25962"
     inkscape:window-width="1366"
     inkscape:window-height="697"
     inkscape:window-x="-8"
     inkscape:window-y="-8"
     inkscape:window-maximized="1"
     inkscape:current-layer="layer1" />
  <defs
     id="defs2">
    <filter
       inkscape:label="Cross Noise"
       inkscape:menu="Overlays"
       inkscape:menu-tooltip="Adds a small scale screen like graininess"
       style="color-interpolation-filters:sRGB;"
       id="filter8749"
       x="0"
       y="0"
       width="1"
       height="1">
      <feTurbulence
         type="fractalNoise"
         numOctaves="5"
         baseFrequency="1"
         seed="0"
         result="result0"
         id="feTurbulence8737" />
      <feConvolveMatrix
         kernelMatrix="-2 0 -2 0 -10 0 -2 0 -2 "
         order="3 3"
         result="result5"
         id="feConvolveMatrix8739" />
      <feColorMatrix
         result="result4"
         values="0"
         type="saturate"
         in="result5"
         id="feColorMatrix8741" />
      <feComposite
         in2="result4"
         in="SourceGraphic"
         operator="arithmetic"
         k1="1.5"
         k2="0.5"
         k3="0.5"
         result="result2"
         id="feComposite8743" />
      <feBlend
         result="result6"
         in2="result4"
         mode="normal"
         id="feBlend8745" />
      <feComposite
         in2="SourceGraphic"
         in="result6"
         operator="in"
         result="result3"
         id="feComposite8747" />
    </filter>
  </defs>
  <g
     inkscape:label="Camada 1"
     inkscape:groupmode="layer"
     id="layer1">
    <rect
       style="fill:#05285b;stroke-width:0.0556645;stroke-linecap:round;stroke-linejoin:round"
       id="rect846"
       width="52.916668"
       height="79.375"
       x="-6.357829e-07"
       y="0" />
    <rect
       style="opacity:0.593592;fill:#05285b;stroke-width:2.42387;stroke-linecap:round;stroke-linejoin:round;filter:url(#filter8749)"
       id="rect8639"
       width="2304.2188"
       height="3456.3281"
       x="-1125.6511"
       y="-1688.4766"
       transform="matrix(0.02296512,0,0,0.02296512,25.850716,38.776072)" />
    <path
       style="fill:#e6d11f;fill-opacity:1;stroke:none;stroke-width:0.047636"
       d="m 24.934039,47.351475 c 0.321212,0.147101 0.576873,0.409241 0.905085,0.556718 0.871588,0.391569 1.418788,-0.186777 2.143611,-0.556718 0.122138,0.906322 0.542236,1.845985 0.825527,2.715243 0.103752,0.318304 0.146248,0.769271 0.461546,0.95567 0.253799,0.150052 0.62203,0.09232 0.904173,0.09232 h 1.953073 c 0.55572,0 1.111531,0.0026 1.667251,-4.7e-5 0.269047,-0.0013 0.5683,-0.02254 0.71492,-0.286675 0.236279,-0.425768 -0.219695,-1.243151 -0.347169,-1.666349 -0.311733,-1.034837 -0.636364,-2.068729 -0.971295,-3.096329 -0.135903,-0.416953 -0.469641,-1.038698 -0.452258,-1.475997 0.01049,-0.264713 0.375421,-0.37956 0.579442,-0.456825 0.565966,-0.214363 1.237151,-0.372085 1.623053,-0.87955 0.685671,-0.901745 -0.15806,-1.877756 0.122753,-2.808653 0.280342,-0.92947 1.484809,-1.390542 1.280741,-2.5247 -0.15739,-0.874978 -1.050519,-1.297508 -1.281265,-2.095981 -0.269571,-0.932899 0.581061,-1.927058 -0.141855,-2.810322 -0.571773,-0.698536 -1.642107,-0.592277 -2.207017,-1.240781 -0.601735,-0.69084 -0.439442,-1.821258 -1.39711,-2.259761 -0.841724,-0.385411 -1.715653,0.275139 -2.524701,0.03245 -0.955859,-0.286718 -1.351475,-1.348491 -2.47706,-1.293773 -0.954483,0.0464 -1.380441,1.106125 -2.238888,1.306492 -0.845585,0.197368 -1.725565,-0.480788 -2.572336,0.003 -0.897742,0.513051 -0.700197,1.665369 -1.385868,2.298649 -0.636418,0.587736 -1.666697,0.467355 -2.193951,1.248681 -0.580134,0.859681 0.135051,1.776148 -0.05906,2.667601 -0.178118,0.817813 -1.134311,1.262686 -1.293085,2.143614 -0.204622,1.135307 0.9997,1.592894 1.280764,2.524701 0.258117,0.855729 -0.453451,1.746139 0.0023,2.619969 0.319099,0.611596 1.045442,0.81786 1.648067,1.03332 0.222553,0.07955 0.663135,0.200115 0.674719,0.491743 0.01741,0.437299 -0.316355,1.059039 -0.452258,1.475997 -0.340259,1.043893 -0.660041,2.0955 -0.985843,3.143965 -0.129321,0.416148 -0.592144,1.258491 -0.304155,1.66449 0.159974,0.225556 0.434957,0.239705 0.686454,0.240897 0.539857,0.0026 1.07976,4.7e-5 1.619617,4.7e-5 h 2.0007 c 0.282151,0 0.650381,0.05774 0.90418,-0.09232 0.315306,-0.1864 0.357794,-0.63737 0.461546,-0.95567 0.283336,-0.869258 0.703389,-1.808926 0.825527,-2.715243 m 1.42936,-18.082288 c 0.307059,-0.05775 0.587393,0.18497 0.809809,0.361932 0.433483,0.344937 0.830672,0.74834 1.381437,0.89733 0.701914,0.189871 1.774818,-0.449068 2.379746,-0.05235 0.289098,0.189599 0.369705,0.61323 0.480928,0.917359 0.191214,0.522736 0.392948,1.002029 0.854919,1.345185 0.485222,0.360463 1.686124,0.438681 1.917729,1.036796 0.281474,0.727019 -0.334931,1.634862 -0.07183,2.429235 0.213599,0.644898 1.321748,1.303845 1.227384,2.000708 -0.09693,0.715917 -0.993681,1.215426 -1.237006,1.905435 -0.180779,0.512656 -0.03717,1.102671 0.04948,1.619617 0.04477,0.26652 0.136093,0.599449 -0.0023,0.853013 -0.314964,0.578016 -1.518108,0.633652 -2.025859,1.067948 -0.648078,0.554339 -0.538474,1.643771 -1.159644,2.142231 -0.228269,0.183211 -0.531519,0.106896 -0.794136,0.06817 -0.544478,-0.08017 -1.070806,-0.236702 -1.619617,-0.105991 -0.782088,0.186258 -1.202901,1.078618 -1.953073,1.243437 -0.764553,0.167967 -1.469896,-1.028453 -2.191245,-1.231862 -0.525994,-0.148288 -1.046134,-0.0052 -1.571983,0.07927 -0.269814,0.04335 -0.600595,0.137286 -0.848633,-0.02384 -0.258664,-0.168014 -0.340883,-0.534332 -0.440058,-0.805523 -0.195357,-0.534046 -0.380612,-1.085906 -0.854965,-1.440459 -0.483034,-0.361083 -1.709854,-0.468356 -1.952587,-1.038511 -0.308381,-0.724398 0.345922,-1.641484 0.06871,-2.42752 -0.22712,-0.644087 -1.292689,-1.31313 -1.239415,-2.000708 0.05647,-0.728922 1.007309,-1.252537 1.240594,-1.953067 0.162916,-0.489221 0.05062,-1.033034 -0.04127,-1.524348 -0.05055,-0.270381 -0.154631,-0.644226 -0.0206,-0.904367 0.315161,-0.611596 1.524401,-0.6468 2.039624,-1.105103 0.625701,-0.556618 0.541286,-1.624393 1.148456,-2.11419 0.552809,-0.445978 1.706221,0.194607 2.376789,0.03176 0.809565,-0.196609 1.26668,-1.124594 2.048335,-1.271608 m -0.09527,2.52558 c -2.01328,0.261098 -3.744697,0.921735 -4.981369,2.64739 -2.396817,3.344558 -0.891031,8.317405 3.028303,9.684603 0.964623,0.3365 1.990888,0.434248 3.001054,0.305348 2.874014,-0.366847 5.27429,-2.839238 5.473834,-5.750364 0.204554,-2.983999 -1.650727,-5.818097 -4.568749,-6.641409 -0.59602,-0.168174 -1.333856,-0.32587 -1.953073,-0.245568 m -0.428718,1.041349 c 4.545841,-0.543635 7.564285,4.727045 4.967414,8.417965 -0.404335,0.57468 -0.93881,1.070999 -1.537635,1.438079 -0.62003,0.380086 -1.324712,0.644227 -2.048342,0.739405 -0.762987,0.100318 -1.545356,0.0565 -2.286522,-0.16349 -3.507855,-1.041176 -4.921542,-5.36965 -2.780029,-8.301925 0.40891,-0.55986 0.945149,-1.051989 1.541496,-1.407495 0.652995,-0.38928 1.390018,-0.632413 2.143618,-0.722539 m 0.429432,1.546115 c -0.62374,0.244516 -0.66204,1.441698 -1.079615,1.903289 -0.290101,0.320683 -1.269545,0.290865 -1.683973,0.354271 -0.288011,0.04406 -0.578827,0.184252 -0.589255,0.51761 -0.0241,0.77356 1.231336,1.080904 1.409682,1.762523 0.165014,0.630749 -0.874591,1.978318 -0.151432,2.436195 0.701626,0.44425 1.615946,-0.917753 2.332059,-0.823718 0.647659,0.08503 1.482003,1.117487 2.143428,0.869496 0.338732,-0.127046 0.357696,-0.463355 0.291477,-0.767081 -0.105461,-0.48393 -0.41705,-1.175274 -0.35765,-1.667255 0.04963,-0.41086 0.787804,-0.905082 1.065995,-1.190895 0.220318,-0.226271 0.475265,-0.529807 0.282105,-0.855348 -0.393571,-0.663189 -1.645961,-0.146052 -2.168055,-0.600593 -0.369507,-0.321636 -0.54552,-1.109917 -0.769365,-1.545118 -0.143906,-0.279811 -0.380467,-0.528568 -0.725401,-0.393376 m 0.237466,1.679544 c 0.124471,0.365607 0.332308,0.986013 0.667809,1.203189 0.300773,0.194781 0.885551,0.210788 1.237629,0.225886 -0.198503,0.425676 -0.715831,0.648754 -0.880883,1.095625 -0.145435,0.393948 0.160058,0.980869 0.213978,1.381438 L 26.410634,39.410713 25.1721,39.967765 c 0.05389,-0.400521 0.359413,-0.98749 0.213986,-1.381438 -0.165059,-0.446871 -0.682387,-0.669949 -0.880891,-1.095625 0.358562,-0.01539 0.990351,-0.03648 1.281167,-0.262663 0.305538,-0.237609 0.502514,-0.808808 0.624272,-1.166412 h 0.09527 m -5.621025,9.908253 c 0.612787,1.395256 2.047863,0.762176 3.191599,0.762176 l -1.000353,3.334509 h -3.525048 l 0.889222,-2.905786 0.44458,-1.190899 m 11.194422,0 0.844111,2.619973 0.442057,1.476712 H 29.840421 L 28.84006,46.732056 c 0.826538,0 1.81131,0.437485 2.572291,-0.03878 0.298059,-0.186491 0.443919,-0.467874 0.66695,-0.723396 z"
       id="path1584" />
  </g>
</svg>
