<?xml version="1.0" encoding="UTF-8" standalone="no"?>
<!-- Created with Inkscape (http://www.inkscape.org/) -->

<svg
   width="200"
   height="300"
   viewBox="0 0 52.916666 79.375002"
   version="1.1"
   id="svg5"
   inkscape:version="1.1.1 (3bf5ae0d25, 2021-09-20)"
   sodipodi:docname="fundo geral.svg"
   xmlns:inkscape="http://www.inkscape.org/namespaces/inkscape"
   xmlns:sodipodi="http://sodipodi.sourceforge.net/DTD/sodipodi-0.dtd"
   xmlns="http://www.w3.org/2000/svg"
   xmlns:svg="http://www.w3.org/2000/svg">
  <sodipodi:namedview
     id="namedview7"
     pagecolor="#505050"
     bordercolor="#eeeeee"
     borderopacity="1"
     inkscape:pageshadow="0"
     inkscape:pageopacity="0"
     inkscape:pagecheckerboard="0"
     inkscape:document-units="mm"
     showgrid="false"
     units="px"
     inkscape:zoom="1.184265"
     inkscape:cx="82.751751"
     inkscape:cy="132.99389"
     inkscape:window-width="1366"
     inkscape:window-height="697"
     inkscape:window-x="-8"
     inkscape:window-y="-8"
     inkscape:window-maximized="1"
     inkscape:current-layer="layer1" />
  <defs
     id="defs2">
    <filter
       inkscape:label="Cross Noise"
       inkscape:menu="Overlays"
       inkscape:menu-tooltip="Adds a small scale screen like graininess"
       style="color-interpolation-filters:sRGB;"
       id="filter8749"
       x="0"
       y="0"
       width="1"
       height="1">
      <feTurbulence
         type="fractalNoise"
         numOctaves="5"
         baseFrequency="1"
         seed="0"
         result="result0"
         id="feTurbulence8737" />
      <feConvolveMatrix
         kernelMatrix="-2 0 -2 0 -10 0 -2 0 -2 "
         order="3 3"
         result="result5"
         id="feConvolveMatrix8739" />
      <feColorMatrix
         result="result4"
         values="0"
         type="saturate"
         in="result5"
         id="feColorMatrix8741" />
      <feComposite
         in2="result4"
         in="SourceGraphic"
         operator="arithmetic"
         k1="1.5"
         k2="0.5"
         k3="0.5"
         result="result2"
         id="feComposite8743" />
      <feBlend
         result="result6"
         in2="result4"
         mode="normal"
         id="feBlend8745" />
      <feComposite
         in2="SourceGraphic"
         in="result6"
         operator="in"
         result="result3"
         id="feComposite8747" />
    </filter>
  </defs>
  <g
     inkscape:label="Camada 1"
     inkscape:groupmode="layer"
     id="layer1">
    <rect
       style="fill:#05285b;stroke-width:0.0556645;stroke-linecap:round;stroke-linejoin:round"
       id="rect846"
       width="52.916668"
       height="79.375"
       x="-6.357829e-07"
       y="0" />
    <rect
       style="opacity:0.593592;fill:#05285b;stroke-width:2.42387;stroke-linecap:round;stroke-linejoin:round;filter:url(#filter8749)"
       id="rect8639"
       width="2304.2188"
       height="3456.3281"
       x="-1125.6511"
       y="-1688.4766"
       transform="matrix(0.02296512,0,0,0.02296512,25.850716,38.776072)" />
    <path
       style="fill:#e6d11f;fill-opacity:1;stroke:none;stroke-width:0.0445437"
       d="m 23.69646,30.511354 c -0.430381,0.06356 -0.852345,0.263401 -1.247226,0.439251 -0.14548,0.06479 -0.350381,0.225547 -0.515639,0.207493 -0.686687,-0.07502 -1.198673,-1.227641 -1.978813,-0.965045 -0.339068,0.114129 -0.601516,0.474378 -0.846333,0.719195 l -1.559033,1.559033 c -0.24879,0.248791 -0.586053,0.502676 -0.573123,0.890877 0.02235,0.671007 0.815851,1.110565 0.988796,1.724512 0.04256,0.151048 -0.0967,0.328021 -0.158169,0.458134 -0.181227,0.383567 -0.273941,0.826108 -0.471324,1.196758 -0.109167,0.20499 -0.385752,0.197328 -0.587967,0.237551 -0.414762,0.08245 -1.136212,0.105703 -1.446232,0.415685 -0.268848,0.268865 -0.201891,0.700139 -0.201891,1.045353 v 2.449909 c 0,0.334746 -0.05844,0.740452 0.201891,1.00081 0.375229,0.375192 1.509893,0.472654 2.0253,0.513679 0.06356,0.430383 0.263401,0.852345 0.439251,1.247227 0.06479,0.145479 0.225547,0.350382 0.207493,0.515638 -0.07629,0.698226 -1.326549,1.27048 -0.927891,2.067902 0.155917,0.311896 0.483545,0.558757 0.726585,0.801789 l 1.469945,1.469946 c 0.244832,0.244812 0.51328,0.603835 0.890877,0.617644 0.489758,0.01791 1.038983,-0.523346 1.425401,-0.780987 0.333053,-0.222006 0.860364,-0.451986 0.988696,-0.861166 0.242139,-0.772077 0.03581,-1.907899 0.03581,-2.717171 0,-0.349715 0.06869,-0.783882 -0.06606,-1.113595 -0.155189,-0.379736 -0.52713,-0.674749 -0.744014,-1.024508 -0.493412,-0.795685 -0.81435,-1.68977 -0.878581,-2.628085 -0.300761,-4.391796 4.628813,-7.31406 8.370225,-5.15443 2.246521,1.296759 3.316241,4.13518 2.463495,6.579832 -0.183387,0.525662 -0.445527,1.019118 -0.771365,1.469946 -0.204368,0.282763 -0.518357,0.539871 -0.599516,0.890875 -0.187484,0.811188 -0.02356,1.839661 -0.02356,2.672629 0,0.338799 -0.08009,0.800407 0.07007,1.113551 0.118932,0.248108 0.378309,0.388021 0.59809,0.53457 0.470783,0.313901 1.01444,0.825663 1.559032,0.988873 0.66807,0.200179 1.331816,-0.8062 1.737208,-1.211592 0.415685,-0.415683 0.83395,-0.828961 1.247049,-1.247226 0.244635,-0.247709 0.476352,-0.520674 0.365438,-0.890877 -0.164678,-0.549581 -0.906199,-1.024106 -0.967446,-1.584691 -0.01769,-0.161738 0.143964,-0.366239 0.207483,-0.508867 0.17586,-0.394882 0.375683,-0.81689 0.439248,-1.247227 0.522632,-0.04161 1.643399,-0.131761 2.025318,-0.513679 0.268821,-0.268867 0.201872,-0.700139 0.201872,-1.045353 v -2.405366 c 0,-0.331317 0.06267,-0.737155 -0.169267,-1.009853 -0.352787,-0.414702 -1.537607,-0.507756 -2.057923,-0.54918 -0.06356,-0.430383 -0.263388,-0.852346 -0.439248,-1.247227 -0.06481,-0.14548 -0.22557,-0.350383 -0.207483,-0.515639 0.06806,-0.623301 0.928781,-1.055243 0.994172,-1.711551 0.03822,-0.383211 -0.280982,-0.646152 -0.525616,-0.890875 L 33.718819,30.82316 c -0.23724,-0.237227 -0.496129,-0.589483 -0.846332,-0.65283 -0.755686,-0.136687 -1.217784,0.913617 -1.896497,0.987768 -0.173854,0.019 -0.400761,-0.162214 -0.553411,-0.2321 -0.374793,-0.171613 -0.793282,-0.354186 -1.202683,-0.414644 -0.04161,-0.522641 -0.131761,-1.643383 -0.51368,-2.0253 -0.268866,-0.268847 -0.700139,-0.201891 -1.045354,-0.201891 h -2.405365 c -0.331317,0 -0.737155,-0.06267 -1.009853,0.169274 -0.414703,0.352767 -0.507754,1.537601 -0.549181,2.057917 m 4.008943,-0.890876 c 0.06575,0.508957 0.122362,1.548356 0.539202,1.890532 0.397108,0.326006 1.087136,0.373616 1.554357,0.594162 0.363745,0.171698 0.874885,0.59265 1.291771,0.528956 0.514791,-0.07865 1.152881,-0.652454 1.559032,-0.964636 h 0.04454 l 1.737209,1.737209 v 0.04454 c -0.306193,0.398355 -1.010608,1.165133 -0.969941,1.692665 0.0396,0.513366 0.521476,1.071322 0.700318,1.559034 0.142363,0.388288 0.195815,0.992435 0.541075,1.256135 0.425972,0.325346 1.259207,0.335994 1.777564,0.436528 v 2.494454 c -0.508467,0.09581 -1.360991,0.111625 -1.777564,0.429802 -0.343166,0.262142 -0.400895,0.877648 -0.547267,1.262863 -0.182004,0.478935 -0.65515,1.05395 -0.694126,1.559032 -0.04067,0.527532 0.663748,1.29431 0.969941,1.692665 v 0.04454 l -1.737209,1.737208 h -0.04454 c -0.265614,-0.204188 -0.760986,-0.39399 -0.934172,-0.682677 -0.152206,-0.253589 -0.04579,-0.808828 -0.04579,-1.099074 0,-0.496976 -0.119422,-1.171501 0.0229,-1.648122 0.07768,-0.26018 0.331762,-0.489091 0.481742,-0.7127 0.271272,-0.404324 0.509447,-0.838626 0.688958,-1.29177 0.464682,-1.172927 0.615241,-2.454365 0.391095,-3.697136 -0.166059,-0.920631 -0.508422,-1.799882 -1.020944,-2.58354 -0.474614,-0.725707 -1.1009,-1.383977 -1.810972,-1.883268 -3.875757,-2.725413 -9.342574,-0.708737 -10.626906,3.843194 -0.392679,1.391772 -0.28548,2.885593 0.222587,4.231662 0.283743,0.751722 0.903525,1.332528 1.19012,2.049015 0.176572,0.441474 0.03817,1.174531 0.03817,1.64812 0,0.300181 0.111403,0.881656 -0.04579,1.143619 -0.173186,0.288687 -0.668558,0.478489 -0.934173,0.682677 h -0.04454 l -1.737209,-1.737208 v -0.04454 c 0.31218,-0.406151 0.885984,-1.044241 0.964636,-1.559034 0.0637,-0.416884 -0.35726,-0.928025 -0.528957,-1.291769 -0.22055,-0.467221 -0.268154,-1.157249 -0.594163,-1.554357 -0.342175,-0.41684 -1.381569,-0.473457 -1.890532,-0.539202 v -2.494454 c 0.518615,-0.06699 1.535791,-0.123431 1.890532,-0.542765 0.32824,-0.387978 0.375946,-1.088518 0.594163,-1.550792 0.171697,-0.363745 0.592659,-0.874885 0.528957,-1.291772 -0.07865,-0.514793 -0.652456,-1.152881 -0.964636,-1.559033 v -0.04454 l 1.737209,-1.737209 h 0.04454 c 0.398356,0.306203 1.165132,1.010597 1.692664,0.969927 0.505082,-0.03894 1.080099,-0.512097 1.559034,-0.694107 0.386551,-0.146901 0.993282,-0.203132 1.256136,-0.547273 0.331673,-0.434241 0.334656,-1.252216 0.436529,-1.777561 h 2.494452 m -0.489981,9.354199 h -1.51449 c -0.07533,-0.595329 -0.178621,-1.187316 -0.261472,-1.781754 -0.04125,-0.296216 -0.03848,-0.665616 -0.17684,-0.934751 -0.277863,-0.540672 -0.864548,-0.34508 -1.254352,-0.0702 -0.185303,0.130647 -0.364457,0.280403 -0.526953,0.438579 -0.238755,0.232429 -0.449448,0.504725 -0.622099,0.789093 -0.865887,1.426247 -0.823972,3.24898 0.109889,4.632556 0.228598,0.338622 0.500138,0.622364 0.816443,0.87925 0.177063,0.143787 0.42045,0.252028 0.44281,0.502276 0.155191,1.735872 0.0026,3.55642 0.0026,5.300044 0,0.559603 -0.201516,1.614402 0.139555,2.085318 0.220092,0.303832 0.596888,0.275503 0.929496,0.275503 h 2.138103 c 0.317063,0 0.698847,0.05808 0.971723,-0.139556 0.291094,-0.210914 0.275504,-0.564147 0.275504,-0.884951 v -2.093558 -3.296243 c 0,-0.384279 -0.12205,-1.017201 0.02686,-1.372662 0.153943,-0.367396 0.810385,-0.698848 1.073996,-1.032703 0.741208,-0.938805 1.028338,-2.168169 0.839561,-3.340785 -0.165791,-1.029541 -0.732656,-1.95574 -1.539522,-2.60755 -0.349447,-0.282319 -0.862948,-0.620896 -1.283397,-0.262943 -0.250024,0.212876 -0.244502,0.566107 -0.287708,0.866022 -0.0984,0.68299 -0.213142,1.364465 -0.299735,2.049016 M 24.18642,37.861081 c 0.149488,0.620764 0.0184,1.726697 0.469135,2.212536 0.220625,0.23773 0.523212,0.237375 0.822636,0.237375 h 1.915383 c 0.329579,0 0.672566,0.0088 0.899784,-0.275504 0.412075,-0.51564 0.285837,-1.548744 0.43653,-2.174407 h 0.04454 c 0.638938,1.152171 0.878092,2.510222 -0.05795,3.608048 -0.370071,0.434035 -1.211815,0.720497 -1.343887,1.291771 -0.159958,0.691988 -0.02356,1.561528 -0.02356,2.271735 v 4.721642 h -1.781732 v -4.721642 c 0,-0.710207 0.136394,-1.579747 -0.02356,-2.271735 -0.129445,-0.559915 -0.936489,-0.833816 -1.305001,-1.247226 -0.842455,-0.945086 -0.964195,-2.699668 -0.05229,-3.652593 z"
       id="path994" />
    <path
       style="fill:#e6d11f;fill-opacity:1;stroke:none;stroke-width:0.0424627"
       d="m -24.444475,30.595523 c -1.566407,0.03337 -1.656045,1.59059 -1.656045,2.760075 0,0.523268 -0.01081,1.033754 0.189083,1.528657 0.335044,0.829592 1.023946,1.477913 1.891586,1.722795 0.277625,0.07835 0.773079,4.82e-4 1.002544,0.146751 0.162635,0.103694 0.257199,0.39087 0.358517,0.550827 0.21864,0.34518 0.47435,0.685559 0.763731,0.974985 0.419999,0.419999 0.920294,0.769678 1.442076,1.050102 0.21329,0.114608 0.674775,0.198173 0.805602,0.40709 0.180888,0.288789 0.04365,1.009339 0.04365,1.347001 -1.152522,0 -2.067214,0.538554 -2.165599,1.783433 -0.779442,0 -2.107635,-0.260636 -2.658571,0.425263 -0.465362,0.579362 -0.228892,1.802287 -0.228892,2.504662 -1.102225,0 -2.305265,-0.137877 -3.397014,0.008 -0.348136,0.04654 -0.60034,0.365009 -0.588809,0.713883 0.01436,0.434945 0.43553,0.738383 0.7162,1.019104 0.101506,0.101528 0.337338,0.265264 0.337338,0.424626 0,0.171847 -0.257855,0.329341 -0.367679,0.436135 -0.415192,0.40365 -1.080521,1.060251 -0.393632,1.583815 0.397686,0.303141 1.223504,0.145648 1.697854,0.145648 h 4.033955 c 0.557916,0 1.22318,0.102631 1.648186,-0.343651 0.54535,-0.572694 0.305093,-1.815365 0.305093,-2.543812 h 5.774928 c 0,0.728447 -0.240258,1.971118 0.305092,2.543812 0.425011,0.446282 1.090274,0.343651 1.648191,0.343651 h 4.0339546 c 0.474432,0 1.30008,0.157451 1.697867,-0.145648 0.678851,-0.51728 0.03603,-1.186916 -0.381524,-1.594685 -0.100088,-0.09775 -0.382803,-0.267727 -0.3952,-0.420508 -0.01217,-0.149554 0.259107,-0.335795 0.352733,-0.429383 0.280723,-0.280637 0.701825,-0.584202 0.716223,-1.019104 0.01151,-0.348874 -0.240682,-0.667344 -0.588832,-0.713883 -1.091758,-0.14586 -2.294811,-0.008 -3.3970126,-0.008 0,-0.702375 0.236474,-1.9253 -0.228876,-2.504662 -0.550952,-0.685899 -1.879141,-0.425263 -2.658588,-0.425263 -0.09885,-1.250993 -1.008996,-1.783433 -2.165595,-1.783433 0,-0.337662 -0.13724,-1.058212 0.04365,-1.347001 0.130832,-0.208917 0.592316,-0.292482 0.805602,-0.40709 0.518896,-0.278852 1.027343,-0.626537 1.439913,-1.050102 0.287005,-0.294604 0.546028,-0.627895 0.765898,-0.974985 0.101314,-0.159957 0.195877,-0.447133 0.358512,-0.550827 0.229466,-0.146326 0.72492,-0.06841 1.002544,-0.146751 0.871165,-0.245858 1.5547696,-0.888871 1.8915816,-1.722795 0.199875,-0.494903 0.189088,-1.005389 0.189088,-1.528657 0,-1.169995 -0.08998,-2.727574 -1.6560446,-2.760075 0.52569,-0.924781 -0.02049,-2.092401 -1.104027,-2.200818 -1.815283,-0.181626 -3.737355,-0.0072 -5.562614,-0.0072 -1.825257,0 -3.74733,-0.174385 -5.562612,0.0072 -1.078686,0.107927 -1.625287,1.283812 -1.104028,2.200818 m 1.104028,-1.472201 c 0.984417,-0.176171 2.141269,-0.014 3.142241,-0.014 h 6.411863 c 0.507856,0 1.270485,-0.141266 1.740803,0.0651 0.480378,0.210781 0.573584,0.893792 0.165558,1.22755 -0.247134,0.202156 -0.589803,0.151077 -0.887256,0.151077 h -1.910822 -6.199549 -1.783431 c -0.265607,0 -0.599319,0.05289 -0.849211,-0.05216 -0.650358,-0.273406 -0.505391,-1.256748 0.169804,-1.377579 m 0.04246,6.864963 c -0.91656,-0.01894 -1.740448,-0.647047 -1.999449,-1.528657 -0.128315,-0.43677 -0.08122,-0.908319 -0.08122,-1.358804 0,-0.374861 -0.07239,-0.837999 0.08361,-1.188955 0.224502,-0.50504 0.731977,-0.636907 1.232728,-0.636941 0.123569,-9e-6 0.337495,-0.03871 0.441483,0.04364 0.192997,0.152858 0.06807,0.95334 0.06807,1.187775 0,0.726792 -0.06191,1.484666 0.0072,2.20806 0.04154,0.434563 0.184583,0.845941 0.247554,1.27388 m 0.523059,-4.687731 c 0.170908,-0.08411 0.478894,-0.02562 0.665898,-0.02562 h 1.528654 5.477688 1.698507 c 0.166837,0 0.515924,-0.06556 0.653798,0.04364 0.1197,0.09483 0.06807,0.374586 0.06807,0.508373 v 1.401269 c 0,2.301986 -0.622118,4.405334 -2.844996,5.509618 -2.772646,1.377447 -6.337048,-0.139533 -7.138659,-3.174171 -0.277067,-1.048914 -0.207386,-2.151159 -0.207386,-3.227163 0,-0.204102 -0.110405,-0.933186 0.09843,-1.035945 m 10.517237,4.687734 c 0.06298,-0.427938 0.206029,-0.839316 0.247559,-1.27388 0.06913,-0.723394 0.0072,-1.481268 0.0072,-2.208059 0,-0.234441 -0.124926,-1.034913 0.06807,-1.187776 0.103992,-0.08235 0.317918,-0.04366 0.441484,-0.04364 0.510276,3.4e-5 0.992225,0.133833 1.229339,0.63694 0.163015,0.345927 0.087,0.816556 0.087,1.188955 0,0.384881 0.05189,0.812693 -0.03817,1.188954 -0.229554,0.959233 -1.041736,1.677828 -2.042499,1.698507 m -9.554029,-3.959311 c -0.451717,0.07303 -0.323732,0.776315 0.127133,0.675551 0.411721,-0.09204 0.294311,-0.743691 -0.127133,-0.675551 m -0.124926,1.497671 c -0.24178,0.13189 -0.172352,0.491802 -0.172352,0.720677 0,0.707937 0.178853,1.365854 0.499188,1.995745 0.130661,0.2569 0.365476,0.724797 0.729893,0.538343 0.194012,-0.09924 0.228026,-0.31121 0.143439,-0.49588 -0.204838,-0.447386 -0.470191,-0.82335 -0.574053,-1.316344 -0.08301,-0.394094 0.01282,-0.855537 -0.110743,-1.229719 -0.06934,-0.21002 -0.311763,-0.323905 -0.515372,-0.212822 m 5.262869,6.368214 v 1.188955 h -2.208061 V 39.89485 h 2.208061 m 2.165599,2.972387 h -6.539254 c 0.03773,-0.461654 0.299192,-0.894348 0.764327,-1.028063 0.348408,-0.100127 0.786197,-0.0335 1.14649,-0.0335 h 2.292986 c 0.485263,0 1.103266,-0.101528 1.57112,0.0335 0.462885,0.133629 0.726833,0.569467 0.764331,1.028063 m 2.88746,3.651791 h -12.314177 v -2.038209 c 0,-0.24208 -0.06952,-0.608193 0.137069,-0.784965 0.183397,-0.1569 0.489173,-0.106751 0.712186,-0.106751 h 1.740969 6.921418 1.910817 c 0.23257,0 0.563438,-0.05685 0.754649,0.106751 0.20658,0.176772 0.137069,0.542885 0.137069,0.784965 v 2.038209 m -9.511003,-1.798167 c -0.324327,0.104967 -0.334607,0.570741 0,0.669806 0.469255,0.13898 1.124409,0.02433 1.612943,0.02433 h 3.524404 c 0.416899,0 1.343051,0.172738 1.688828,-0.0789 0.194901,-0.141869 0.168234,-0.465349 -0.03743,-0.581102 -0.27104,-0.152568 -0.754605,-0.06187 -1.056939,-0.06187 h -3.94903 c -0.530317,0 -1.277576,-0.135795 -1.782796,0.02772 m -3.525039,1.798167 c 6.5e-5,0.594647 0.38123,0.838128 0.806788,1.206959 0.589213,0.510699 1.37622,1.043903 1.825899,1.680504 h -5.902314 c 0.309671,-0.439617 1.169669,-0.889807 1.140331,-1.486195 -0.02811,-0.571717 -0.794624,-0.970782 -1.09787,-1.401268 h 3.227166 m 16.9850716,0 c -0.303228,0.430486 -1.069761,0.829551 -1.097874,1.401268 -0.02933,0.596388 0.830656,1.046578 1.140336,1.486195 h -5.9023136 c 0.450234,-0.633883 1.237705,-1.170697 1.825897,-1.680504 0.426535,-0.369638 0.806706,-0.609807 0.80679,-1.206959 h 3.2271646 m -13.7154446,0.721865 v 1.698508 l -0.721866,-0.587426 -1.188957,-1.111079 h 1.910822 m 9.129474,0 -1.188953,1.111079 -0.721869,0.587429 V 47.24088 Z"
       id="path1348" />
    <path
       style="fill:#e6d11f;fill-opacity:1;stroke:none;stroke-width:0.0468426"
       d="m -88.153415,34.18834 h -0.0937 c -0.13532,-0.569648 -0.96998,-1.490288 -1.43723,-0.608248 -0.24495,0.46243 0.12614,1.079251 0.30596,1.498255 0.19688,0.458778 0.37588,1.330746 0.8504,1.571239 0.61893,0.31375 1.77068,-0.442944 2.34194,-0.688258 0.23759,-0.102071 0.5093,-0.193319 0.66146,-0.416571 0.28425,-0.417035 0.0267,-1.002193 -0.47409,-1.066506 -0.32356,-0.04154 -0.59121,0.139964 -0.89001,0.225359 0.66944,-1.146936 1.25827,-2.258694 2.24843,-3.181095 3.10041,-2.888288 7.82447,-3.727393 11.61693,-1.676059 1.85421,1.002935 3.35658,2.520276 4.33358,4.388728 0.35726,0.683291 0.47339,1.488983 0.8321,2.154705 0.22832,0.423782 0.82504,0.511098 1.14497,0.138 0.42622,-0.497001 -0.10591,-1.549454 -0.31534,-2.058493 -0.79492,-1.932343 -2.07334,-3.621276 -3.74688,-4.876527 -4.33934,-3.254799 -10.45499,-2.93735 -14.52115,0.600677 -1.11236,0.967873 -2.50513,2.511812 -2.85738,3.994794 m 8.47848,5.808464 v 5.152666 c 0,0.521261 -0.19145,1.478485 0.33225,1.801888 0.84817,0.523698 1.74792,-1.135883 2.18566,-1.66136 1.28353,-1.540834 2.5694,-3.081343 3.83443,-4.637401 0.36532,-0.449361 1.27252,-1.182349 0.79051,-1.824796 -0.23519,-0.313467 -0.61045,-0.283111 -0.95966,-0.283111 h -2.15475 v -5.15267 c 0,-0.521262 0.19145,-1.478508 -0.33225,-1.801875 -0.84073,-0.51912 -1.75959,1.131326 -2.18801,1.661351 -1.26053,1.559428 -2.5672,3.081477 -3.83208,4.637397 -0.36786,0.4525 -1.27548,1.178416 -0.79052,1.824795 0.2352,0.313469 0.61045,0.283116 0.95966,0.283116 h 2.15476 m 2.62317,-5.855306 v 4.122136 c 0,0.475729 -0.13285,1.170594 0.28972,1.508327 0.48238,0.385464 1.55957,0.178 2.14609,0.178 l -1.10436,1.405271 -2.50251,3.04476 h -0.0469 v -4.122137 c 0,-0.475728 0.13284,-1.170589 -0.28972,-1.508322 -0.48238,-0.385468 -1.55958,-0.178004 -2.14609,-0.178004 0.24598,-0.551849 0.80134,-1.030158 1.1803,-1.498957 0.77556,-0.959522 1.54251,-2.143133 2.47342,-2.951074 m 8.38478,9.555858 c -0.35346,1.038075 -1.0494,2.001057 -1.77223,2.810543 -3.32473,3.723364 -9.18004,4.504647 -13.26418,1.538679 -1.3485,-0.979287 -2.48553,-2.244173 -3.23357,-3.740271 -0.32928,-0.65856 -0.43599,-1.554888 -0.82896,-2.15452 -0.27957,-0.426592 -0.91923,-0.440038 -1.1959,0 -0.15649,0.248874 -0.0683,0.582348 0.006,0.842929 0.18762,0.662869 0.43655,1.304562 0.74449,1.920541 1.3464,2.69316 3.62588,4.64972 6.42898,5.705737 3.95045,1.488276 8.65287,0.417178 11.7106,-2.430984 1.21786,-1.134335 1.91103,-2.467658 2.71686,-3.883703 0.0951,0.245126 0.17674,0.547308 0.38355,0.72334 0.35535,0.302415 0.91389,0.167134 1.09823,-0.255105 0.13307,-0.304943 -0.009,-0.606795 -0.13038,-0.889819 -0.22025,-0.51461 -0.43417,-1.031797 -0.65578,-1.545799 -0.1077,-0.249715 -0.23056,-0.500839 -0.50825,-0.592652 -0.52032,-0.172003 -1.26408,0.321998 -1.73316,0.51883 -0.4044,0.169709 -1.08497,0.322695 -1.25238,0.776505 -0.39802,1.078872 0.93633,0.916191 1.48659,0.655749 z"
       id="path1466" />
    <path
       style="fill:#e6d11f;fill-opacity:1;stroke:none;stroke-width:0.047636"
       d="m -49.090878,46.533241 c 0.321212,0.147101 0.576873,0.409241 0.905085,0.556718 0.871588,0.391569 1.418788,-0.186777 2.143611,-0.556718 0.122138,0.906322 0.542236,1.845985 0.825527,2.715243 0.103752,0.318304 0.146248,0.769271 0.461546,0.95567 0.253799,0.150052 0.62203,0.09232 0.904173,0.09232 h 1.953073 c 0.55572,0 1.111531,0.0026 1.667251,-4.7e-5 0.269047,-0.0013 0.5683,-0.02254 0.71492,-0.286675 0.236279,-0.425768 -0.219695,-1.243151 -0.347169,-1.666349 -0.311733,-1.034837 -0.636364,-2.068729 -0.971295,-3.096329 -0.135903,-0.416953 -0.469641,-1.038698 -0.452258,-1.475997 0.01049,-0.264713 0.375421,-0.37956 0.579442,-0.456825 0.565966,-0.214363 1.237151,-0.372085 1.623053,-0.87955 0.685671,-0.901745 -0.15806,-1.877756 0.122753,-2.808653 0.280342,-0.92947 1.484809,-1.390542 1.280741,-2.5247 -0.15739,-0.874978 -1.050519,-1.297508 -1.281265,-2.095981 -0.269571,-0.932899 0.581061,-1.927058 -0.141855,-2.810322 -0.571773,-0.698536 -1.642107,-0.592277 -2.207017,-1.240781 -0.601735,-0.69084 -0.439442,-1.821258 -1.39711,-2.259761 -0.841724,-0.385411 -1.715653,0.275139 -2.524701,0.03245 -0.955859,-0.286718 -1.351475,-1.348491 -2.47706,-1.293773 -0.954483,0.0464 -1.380441,1.106125 -2.238888,1.306492 -0.845585,0.197368 -1.725565,-0.480788 -2.572336,0.003 -0.897742,0.513051 -0.700197,1.665369 -1.385868,2.298649 -0.636418,0.587736 -1.666697,0.467355 -2.193951,1.248681 -0.580134,0.859681 0.135051,1.776148 -0.05906,2.667601 -0.178118,0.817813 -1.134311,1.262686 -1.293085,2.143614 -0.204622,1.135307 0.9997,1.592894 1.280764,2.524701 0.258117,0.855729 -0.453451,1.746139 0.0023,2.619969 0.319099,0.611596 1.045442,0.81786 1.648067,1.03332 0.222553,0.07955 0.663135,0.200115 0.674719,0.491743 0.01741,0.437299 -0.316355,1.059039 -0.452258,1.475997 -0.340259,1.043893 -0.660041,2.0955 -0.985843,3.143965 -0.129321,0.416148 -0.592144,1.258491 -0.304155,1.66449 0.159974,0.225556 0.434957,0.239705 0.686454,0.240897 0.539857,0.0026 1.07976,4.7e-5 1.619617,4.7e-5 h 2.0007 c 0.282151,0 0.650381,0.05774 0.90418,-0.09232 0.315306,-0.1864 0.357794,-0.63737 0.461546,-0.95567 0.283336,-0.869258 0.703389,-1.808926 0.825527,-2.715243 m 1.42936,-18.082288 c 0.307059,-0.05775 0.587393,0.18497 0.809809,0.361932 0.433483,0.344937 0.830672,0.74834 1.381437,0.89733 0.701914,0.189871 1.774818,-0.449068 2.379746,-0.05235 0.289098,0.189599 0.369705,0.61323 0.480928,0.917359 0.191214,0.522736 0.392948,1.002029 0.854919,1.345185 0.485222,0.360463 1.686124,0.438681 1.917729,1.036796 0.281474,0.727019 -0.334931,1.634862 -0.07183,2.429235 0.213599,0.644898 1.321748,1.303845 1.227384,2.000708 -0.09693,0.715917 -0.993681,1.215426 -1.237006,1.905435 -0.180779,0.512656 -0.03717,1.102671 0.04948,1.619617 0.04477,0.26652 0.136093,0.599449 -0.0023,0.853013 -0.314964,0.578016 -1.518108,0.633652 -2.025859,1.067948 -0.648078,0.554339 -0.538474,1.643771 -1.159644,2.142231 -0.228269,0.183211 -0.531519,0.106896 -0.794136,0.06817 -0.544478,-0.08017 -1.070806,-0.236702 -1.619617,-0.105991 -0.782088,0.186258 -1.202901,1.078618 -1.953073,1.243437 -0.764553,0.167967 -1.469896,-1.028453 -2.191245,-1.231862 -0.525994,-0.148288 -1.046134,-0.0052 -1.571983,0.07927 -0.269814,0.04335 -0.600595,0.137286 -0.848633,-0.02384 -0.258664,-0.168014 -0.340883,-0.534332 -0.440058,-0.805523 -0.195357,-0.534046 -0.380612,-1.085906 -0.854965,-1.440459 -0.483034,-0.361083 -1.709854,-0.468356 -1.952587,-1.038511 -0.308381,-0.724398 0.345922,-1.641484 0.06871,-2.42752 -0.22712,-0.644087 -1.292689,-1.31313 -1.239415,-2.000708 0.05647,-0.728922 1.007309,-1.252537 1.240594,-1.953067 0.162916,-0.489221 0.05062,-1.033034 -0.04127,-1.524348 -0.05055,-0.270381 -0.154631,-0.644226 -0.0206,-0.904367 0.315161,-0.611596 1.524401,-0.6468 2.039624,-1.105103 0.625701,-0.556618 0.541286,-1.624393 1.148456,-2.11419 0.552809,-0.445978 1.706221,0.194607 2.376789,0.03176 0.809565,-0.196609 1.26668,-1.124594 2.048335,-1.271608 m -0.09527,2.52558 c -2.01328,0.261098 -3.744697,0.921735 -4.981369,2.64739 -2.396817,3.344558 -0.891031,8.317405 3.028303,9.684603 0.964623,0.3365 1.990888,0.434248 3.001054,0.305348 2.874014,-0.366847 5.27429,-2.839238 5.473834,-5.750364 0.204554,-2.983999 -1.650727,-5.818097 -4.568749,-6.641409 -0.59602,-0.168174 -1.333856,-0.32587 -1.953073,-0.245568 m -0.428718,1.041349 c 4.545841,-0.543635 7.564285,4.727045 4.967414,8.417965 -0.404335,0.57468 -0.93881,1.070999 -1.537635,1.438079 -0.62003,0.380086 -1.324712,0.644227 -2.048342,0.739405 -0.762987,0.100318 -1.545356,0.0565 -2.286522,-0.16349 -3.507855,-1.041176 -4.921542,-5.36965 -2.780029,-8.301925 0.40891,-0.55986 0.945149,-1.051989 1.541496,-1.407495 0.652995,-0.38928 1.390018,-0.632413 2.143618,-0.722539 m 0.429432,1.546115 c -0.62374,0.244516 -0.66204,1.441698 -1.079615,1.903289 -0.290101,0.320683 -1.269545,0.290865 -1.683973,0.354271 -0.288011,0.04406 -0.578827,0.184252 -0.589255,0.51761 -0.0241,0.77356 1.231336,1.080904 1.409682,1.762523 0.165014,0.630749 -0.874591,1.978318 -0.151432,2.436195 0.701626,0.44425 1.615946,-0.917753 2.332059,-0.823718 0.647659,0.08503 1.482003,1.117487 2.143428,0.869496 0.338732,-0.127046 0.357696,-0.463355 0.291477,-0.767081 -0.105461,-0.48393 -0.41705,-1.175274 -0.35765,-1.667255 0.04963,-0.41086 0.787804,-0.905082 1.065995,-1.190895 0.220318,-0.226271 0.475265,-0.529807 0.282105,-0.855348 -0.393571,-0.663189 -1.645961,-0.146052 -2.168055,-0.600593 -0.369507,-0.321636 -0.54552,-1.109917 -0.769365,-1.545118 -0.143906,-0.279811 -0.380467,-0.528568 -0.725401,-0.393376 m 0.237466,1.679544 c 0.124471,0.365607 0.332308,0.986013 0.667809,1.203189 0.300773,0.194781 0.885551,0.210788 1.237629,0.225886 -0.198503,0.425676 -0.715831,0.648754 -0.880883,1.095625 -0.145435,0.393948 0.160058,0.980869 0.213978,1.381438 l -1.333802,-0.557052 -1.238534,0.557052 c 0.05389,-0.400521 0.359413,-0.98749 0.213986,-1.381438 -0.165059,-0.446871 -0.682387,-0.669949 -0.880891,-1.095625 0.358562,-0.01539 0.990351,-0.03648 1.281167,-0.262663 0.305538,-0.237609 0.502514,-0.808808 0.624272,-1.166412 h 0.09527 m -5.621025,9.908253 c 0.612787,1.395256 2.047863,0.762176 3.191599,0.762176 l -1.000353,3.334509 h -3.525048 l 0.889222,-2.905786 0.44458,-1.190899 m 11.194422,0 0.844111,2.619973 0.442057,1.476712 h -3.525048 l -1.000361,-3.334509 c 0.826538,0 1.81131,0.437485 2.572291,-0.03878 0.298059,-0.186491 0.443919,-0.467874 0.66695,-0.723396 z"
       id="path1584" />
  </g>
</svg>
