<?xml version="1.0" encoding="UTF-8" standalone="no"?>
<svg
   width="1920"
   height="1920"
   viewBox="0 0 1920 1920"
   fill="none"
   version="1.1"
   id="svg20"
   sodipodi:docname="Hero sem.svg"
   inkscape:version="1.1.1 (3bf5ae0d25, 2021-09-20)"
   xmlns:inkscape="http://www.inkscape.org/namespaces/inkscape"
   xmlns:sodipodi="http://sodipodi.sourceforge.net/DTD/sodipodi-0.dtd"
   xmlns="http://www.w3.org/2000/svg"
   xmlns:svg="http://www.w3.org/2000/svg">
  <defs
     id="defs966" />
  <sodipodi:namedview
     id="namedview964"
     pagecolor="#505050"
     bordercolor="#eeeeee"
     borderopacity="1"
     inkscape:pageshadow="0"
     inkscape:pageopacity="0"
     inkscape:pagecheckerboard="0"
     showgrid="false"
     inkscape:zoom="0.12239583"
     inkscape:cx="915.06385"
     inkscape:cy="657.70215"
     inkscape:window-width="1366"
     inkscape:window-height="697"
     inkscape:window-x="-8"
     inkscape:window-y="-8"
     inkscape:window-maximized="1"
     inkscape:current-layer="svg20" />
  <circle
     style="fill:#05285b;stroke-width:0.207874;stroke-linecap:round;stroke-linejoin:round;fill-opacity:1"
     id="path1047"
     cx="960"
     cy="960"
     r="415.95932" />
  <g
     class="linhas"
     id="g960">
    <line
       x1="979.19061"
       y1="1048.0774"
       x2="806.18793"
       y2="1192.6783"
       stroke="#f4f4f4"
       stroke-width="22.7405"
       stroke-linecap="round"
       id="line6" />
    <line
       x1="825.08899"
       y1="931.46716"
       x2="692.41992"
       y2="1034.0978"
       stroke="#f4f4f4"
       stroke-width="22.7405"
       stroke-linecap="round"
       id="line8" />
    <line
       x1="1007.713"
       y1="1130.52"
       x2="914.21259"
       y2="1209.6371"
       stroke="#f4f4f4"
       stroke-width="22.7405"
       stroke-linecap="round"
       id="line10" />
    <line
       x1="865.68719"
       y1="1025.3541"
       x2="803.36182"
       y2="1078.777"
       stroke="#f4f4f4"
       stroke-width="22.7405"
       stroke-linecap="round"
       id="line12" />
  </g>
  <path
     style="fill:#d8c12b;stroke:none;stroke-width:0.378723"
     d="m 1156.5071,686.32516 -1.5149,0.75745 3.4085,6.05957 c -9.0697,0.18709 -17.758,1.34902 -26.8894,0.72374 -51.3128,-3.51455 -101.4441,-23.77057 -148.08082,-44.05878 -16.30139,-7.0916 -32.19982,-15.08607 -48.09787,-23.0351 -7.78163,-3.891 -15.84162,-9.90058 -24.61702,-11.15454 -8.28344,-1.18351 -13.65033,3.76224 -19.69362,8.59703 -9.90172,7.92175 -19.51296,16.22981 -29.54042,23.99174 -4.90068,3.79368 -12.33805,8.1702 -12.84251,15.01677 -0.53628,7.27868 4.64958,12.12445 8.88523,17.42127 7.8551,9.82333 15.74997,19.62545 23.49031,29.54043 21.58762,27.65286 43.81754,54.80317 65.75548,82.18298 11.22157,14.00519 24.1171,27.94902 33.63063,43.17446 -9.96686,4.29473 -20.54953,13.40302 -25.46687,23.10213 -1.49482,2.94647 -3.48501,7.19574 -3.12144,10.60426 0.48969,4.58634 8.47128,6.50646 8.5262,10.98297 0.0258,2.10571 -2.83815,4.63179 -4.11332,6.05958 -3.74746,4.20004 -8.20845,8.26374 -7.13401,14.39149 0.9809,5.59374 7.11962,9.66502 10.7353,13.56966 2.1038,2.27234 4.04628,5.20366 6.56706,7.01395 1.9652,1.40886 4.94461,1.45809 6.69242,3.09039 1.68911,1.57927 1.83719,5.00672 3.13583,7.00259 2.92337,4.49166 7.71914,8.15013 11.3102,12.11915 2.17841,2.40868 4.40682,5.49907 7.63885,6.55192 2.36967,0.77259 4.91919,-0.30677 7.19579,-0.91651 6.4598,-1.72698 12.4796,-4.46515 18.1787,-7.90775 1.8622,3.5903 8.8401,11.90328 12.8766,12.994 2.4268,0.65519 5.9368,-0.65898 8.3319,-1.17404 7.5256,-1.62472 14.8702,-3.85541 21.2085,-8.37736 3.4558,-2.46549 6.6776,-5.21502 10.2255,-7.55553 1.1574,-0.76503 2.6962,-2.44656 4.166,-2.4352 2.2932,0.0152 5.5006,3.80617 7.1957,5.1923 45.4154,37.21336 90.3199,75.01752 135.583,112.41642 13.7666,11.3769 27.5559,22.731 41.2809,34.1571 6.3133,5.2529 12.8084,12.5698 20.451,15.7852 7.4533,3.1396 13.7931,-1.2839 20.0724,-4.8628 14.1907,-8.0895 28.0293,-16.8494 42.0383,-25.2533 5.2529,-3.151 14.7777,-6.7413 16.6865,-13.1038 2.6776,-8.9076 -2.1246,-17.16 -6.4042,-24.617 -7.938,-13.831 -15.8344,-27.6355 -23.4203,-41.65961 -21.9205,-40.53097 -42.5609,-85.50059 -51.0973,-131.03829 -2.4504,-13.07732 -3.5221,-26.13533 -2.1057,-39.38724 0.5264,-4.91507 0.9354,-10.97275 3.0904,-15.49812 0.8672,-1.81635 2.3518,-0.36092 3.4123,0.50636 2.0829,1.70387 5.3286,5.5411 8.3319,4.44545 2.7116,-0.98922 5.215,-3.3464 7.5744,-4.9715 4.5144,-3.11159 9.0667,-6.19326 13.6341,-9.22532 3.5221,-2.33786 8.5288,-4.6102 11.2405,-7.89298 1.2195,-1.47778 0.5226,-3.51606 0.2803,-5.23623 -0.5037,-3.58764 -1.2498,-7.36162 -1.2953,-10.98297 -0.1363,-11.74005 1.1741,-26.8193 9.506,-35.97835 4.912,-5.39908 11.6381,-9.08406 17.3834,-13.50225 14.6149,-11.24202 30.0062,-21.63154 44.3106,-33.25532 25.579,-20.78472 47.3594,-47.52562 66.7121,-74.05557 12.9827,-17.79584 29.0898,-38.64986 29.1049,-61.73192 -5.7831,-1.07368 -12.0585,0.10453 -17.8,1.04301 -11.8957,1.94474 -23.3028,5.26349 -34.8425,8.64322 -22.2992,6.52957 -44.0645,15.16181 -65.5192,24.01599 -21.7576,8.97991 -43.9887,18.7256 -63.6255,31.81693 l -41.6596,27.77292 c -7.9001,5.26691 -15.4784,11.82829 -24.9957,13.73517 -11.3466,2.27385 -23.3067,3.45736 -34.8426,2.35944 -4.5901,-0.43704 -9.1158,-1.06951 -13.634,-1.98072 -2.0678,-0.41698 -4.7075,-1.57814 -6.817,-1.19942 -4.6197,0.82941 -9.9521,6.40119 -13.6341,9.16284 -4.7416,3.55621 -9.9933,6.7496 -14.3858,10.72696 -1.4823,1.34181 -3.9785,3.21801 -2.6567,5.32068 z"
     id="path931" />
</svg>
