<svg width="284" height="47" viewBox="0 0 284 47" fill="none" xmlns="http://www.w3.org/2000/svg">
<path d="M127.344 41.7656C126.109 41.3378 125.098 40.8233 125.098 40.6223C125.098 39.5919 128.414 38.288 131.034 38.288C134.598 38.288 137.989 37.1707 139.441 34.4115C139.441 34.4115 140.438 33.1945 140.468 32.46C140.628 28.545 140.61 20.9499 140.61 20.9499L140.751 9.43969H142.893H145.035L144.879 20.9081C144.724 32.37 144.724 32.378 143.4 35.0741C140.48 41.02 133.542 43.9117 127.344 41.7656H127.344ZM159.594 42.124C155.894 40.9153 152.876 38.0913 151.579 34.6244C150.733 32.3647 150.636 30.9344 150.636 20.7721V9.43969H152.49H154.344L154.5 20.6716C154.674 33.265 154.915 34.3379 158.114 36.7777C160.4 38.5216 164.758 38.6042 167.08 36.9477C170.253 34.6849 170.498 33.5257 170.498 20.8087V9.43975H172.627H174.755V20.4676C174.755 33.0122 174.411 34.9702 171.641 38.2068C170.696 39.3099 169.058 40.6543 167.999 41.1944C165.899 42.2658 161.513 42.751 159.594 42.1241L159.594 42.124ZM195.795 30.3711L184.923 18.2363L184.796 30.1538L184.67 42.0714H182.786H180.903V25.5191C180.903 16.4153 181.062 8.96742 181.257 8.9682C181.453 8.96892 186.401 14.3209 192.253 20.8613L202.894 32.753L203.13 20.9781L203.367 9.20324H205.258H207.15L207.275 25.4891C207.343 34.4464 207.235 41.9394 207.034 42.1404C206.833 42.3414 201.776 37.0452 195.795 30.3711ZM235.824 42.0347C230.915 41.0698 226.516 37.6773 224.12 33.009C223.091 31.0026 222.785 29.6602 222.627 26.4649C222.352 20.8688 223.522 17.8132 227.444 13.8911C231.289 10.0465 234.43 8.81512 239.782 9.05393C248.01 9.42109 254.273 14.9516 255.557 22.9833C256.936 31.6088 251.649 39.6091 243.111 41.8158C240.029 42.6125 238.932 42.6454 235.824 42.0347ZM244.588 36.9503C252.163 33.0861 254.065 23.6426 248.535 17.3596C245.882 14.3456 242.964 13.0196 239.077 13.0615C233.994 13.1162 230.173 15.491 227.851 20.0379C226.433 22.8142 226.168 26.928 227.212 29.9721C228.318 33.1963 232.068 36.6634 235.759 37.8745C237.728 38.5206 242.487 38.0225 244.588 36.9503ZM69.6083 41.7561C69.4349 41.5827 69.293 34.2406 69.293 25.4403V9.43969H73.7857H78.2785V25.7556V42.0714H74.101C71.8034 42.0714 69.7817 41.9295 69.6083 41.7561ZM89.6287 29.7754V17.4794H85.6088H81.589V13.4595V9.43969H93.885H106.181V13.4595V17.4794H102.398H98.6142V29.7754V42.0714H94.1214H89.6287V29.7754ZM103.816 40.0615C104.307 38.956 107.678 31.5607 111.308 23.6274L117.908 9.20324L120.202 9.06829L122.497 8.93334L128.29 21.6082C131.476 28.5794 134.083 34.5221 134.083 34.8143C134.083 35.1064 133.392 35.4774 132.546 35.6388C131.701 35.8002 129.871 36.4623 128.48 37.1102C126.217 38.1638 125.338 38.2882 120.157 38.2882H114.364L113.511 40.1799L112.658 42.0716H107.791H102.924L103.816 40.0615ZM123.206 31.4747C123.206 31.3689 122.542 29.826 121.731 28.046L120.256 24.8097L118.93 27.6472C117.062 31.6431 117.071 31.6671 120.369 31.6671C121.929 31.6671 123.206 31.5806 123.206 31.4747ZM213.535 25.7556V9.43969H215.663H217.791V25.7556V42.0714H215.663H213.535V25.7556ZM260.827 25.7556V9.43969H266.917C273.529 9.43969 275.145 9.8358 277.862 12.1219C282.215 15.7845 282.253 23.472 277.936 26.9966C277.179 27.6145 276.195 28.3337 275.748 28.5948C275.036 29.0111 275.493 29.8312 279.468 35.275C281.961 38.6882 284 41.6137 284 41.7761C284 41.9386 282.974 42.0714 281.72 42.0714H279.44L274.96 35.8052L270.481 29.5389L267.546 29.3981L264.61 29.2572V35.6643V42.0713H262.718H260.827L260.827 25.7556ZM273.579 24.9279C276.169 23.5997 277.545 21.2641 277.121 18.9141C276.425 15.0575 273.456 13.2231 267.911 13.2231H264.61V19.6075V25.992H268.057C270.701 25.992 271.987 25.7443 273.579 24.9279ZM159.621 6.77783C159.621 6.61427 160.526 5.02691 161.631 3.25022C163.528 0.201884 163.741 0.018744 165.415 0.000536312C166.39 -0.0101741 167.185 0.140847 167.181 0.33592C167.177 0.531 166.114 2.12713 164.819 3.88286C162.819 6.59324 162.249 7.07507 161.042 7.07507C160.261 7.07507 159.621 6.94137 159.621 6.77783Z" fill="#05285B"/>
<path d="M24.713 12.8437L24.5953 12.883L24.8699 13.3537C23.3575 13.6345 21.5736 13.3221 20.0846 13.0242C16.4972 12.3066 13.0418 10.9008 9.72941 9.37989C8.68349 8.89963 7.66526 8.36186 6.63069 7.85803C6.09079 7.59512 5.58999 7.22973 4.98327 7.13422C4.31485 7.02903 3.9004 7.44139 3.4143 7.83088C2.54822 8.52485 1.70086 9.24218 0.825516 9.92452C0.351692 10.2938 -0.0831981 10.6195 0.0136197 11.2748C0.0826263 11.7412 0.527185 12.1367 0.809853 12.4907C1.4556 13.2995 2.11138 14.1026 2.74286 14.9226C3.73131 16.2061 4.7492 17.4756 5.77753 18.7274C7.41224 20.7172 9.05861 22.738 10.5923 24.8071C9.80414 25.1472 8.98551 25.8625 8.56989 26.6114C8.43767 26.8497 8.24339 27.2722 8.29408 27.5528C8.3523 27.8748 8.99779 28.0952 8.95955 28.4157C8.91017 28.8289 8.24626 29.1803 8.1051 29.5924C7.86775 30.2851 8.59802 30.8076 9.02325 31.2398C9.17835 31.3975 9.31177 31.6009 9.49421 31.7278C9.63421 31.8252 9.82063 31.8367 9.9558 31.9397C10.1342 32.0756 10.1438 32.3935 10.2915 32.5735C10.586 32.9324 10.94 33.2496 11.2525 33.5932C11.4125 33.7693 11.5993 33.9966 11.8475 34.046C12.1806 34.1122 12.7189 33.8498 13.0242 33.7265C13.2809 33.6229 13.5727 33.5183 13.7695 33.3187H13.8087C14.0116 33.6068 14.4856 34.2414 14.8321 34.3531C15.0104 34.4106 15.278 34.3115 15.4561 34.2758C16.028 34.1614 16.5612 34.0068 17.0643 33.703C17.4141 33.4918 18.2224 32.6244 18.5941 32.9112C22.5112 35.9347 26.2202 39.2589 30.0475 42.396C31.1373 43.2895 32.2036 44.2125 33.3031 45.0938C33.7655 45.4645 34.2109 45.978 34.7544 46.2274C35.4139 46.5302 35.9233 46.145 36.4803 45.8254C37.6042 45.1801 38.7031 44.4898 39.8143 43.823C40.2642 43.5531 41.0165 43.2833 41.1679 42.7326C41.399 41.8924 40.8373 41.1037 40.4262 40.4183C39.6245 39.0822 38.8662 37.6979 38.179 36.2998C37.0899 34.0837 36.0817 31.8297 35.3293 29.4748C34.8964 28.1198 34.5047 26.6665 34.4422 25.2386C34.398 24.2297 34.6101 23.3561 34.7544 22.3752C34.9698 22.5225 35.303 22.9412 35.5781 22.9353C35.7941 22.9302 36.0744 22.6623 36.2449 22.5431C36.7377 22.1988 37.2415 21.871 37.7354 21.5285C37.9017 21.4133 38.2639 21.2689 38.3359 21.0681C38.444 20.7667 38.2218 20.2256 38.2077 19.9041C38.1673 18.982 38.3111 17.7965 38.8937 17.0408C39.2722 16.5496 39.9096 16.1997 40.4027 15.8298C41.4084 15.0753 42.4051 14.3105 43.4229 13.5724C44.4714 12.8121 45.3724 11.8662 46.2506 10.9218C47.5815 9.49065 48.8304 7.95951 49.9153 6.33256C50.7418 5.09289 51.6208 3.79497 51.6208 2.25326C51.136 2.16319 50.6127 2.27942 50.1303 2.35428C49.0877 2.51598 48.0738 2.81392 47.0708 3.13562C43.5406 4.26792 39.8551 5.6234 36.7548 7.68639C35.6944 8.39207 34.6377 9.10376 33.5777 9.81045C33.0177 10.1838 32.4387 10.6766 31.7734 10.8341C30.8006 11.0644 29.6705 11.1276 28.6747 11.0328C28.2532 10.9927 27.5835 10.706 27.1841 10.7991C26.8066 10.8872 26.3918 11.3151 26.0859 11.5444C25.7094 11.8266 25.3085 12.0877 24.949 12.3913C24.8156 12.5039 24.6221 12.6651 24.713 12.8438L24.713 12.8437Z" fill="#05285B"/>
</svg>
