<svg xmlns="http://www.w3.org/2000/svg" xmlns:xlink="http://www.w3.org/1999/xlink" version="1.1" x="0px" y="0px"
   viewBox="0 0 66 82.5" enable-background="new 0 0 66 66" xml:space="preserve">
   <g>
      <g>
         <path
            d="M63.9,52.4L43.7,32.2c-0.4-0.4-1-0.4-1.4,0l-0.6,0.6l-9.2-9.2c3-2.7,5.5-4,6.5-4.4c1.6,1.1,3.7,0.9,5-0.4l0.5-0.5    c1.5-1.5,1.5-4,0-5.5L33.5,1.6c-1.5-1.5-4-1.5-5.5,0c-0.1,0.1-3.1,2.5-0.9,5.5c-0.9,2-4.8,9.3-16,15.9c-3-2-5.3,0.9-5.4,1    c-1.5,1.5-1.5,4,0,5.5l11.1,11.1c1.5,1.5,4,1.5,5.5,0c0.1-0.1,3-2.4,1-5.4c1.5-2.5,3-4.7,4.5-6.5l9.1,9.1l-0.6,0.6    c-0.4,0.4-0.4,1,0,1.4L56.4,60c2.1,2.1,5.5,2.1,7.6,0C66,57.9,66,54.5,63.9,52.4z M28.9,3.5C29,3.5,30.5,1.5,32.1,3l11.1,11.1    c1.6,1.6-0.5,3.1-0.5,3.2c-0.7,0.7-2,0.7-2.7,0c-3.9-3.9-7.2-7.2-11.1-11.1l0,0l0,0C28.1,5.5,28.1,4.3,28.9,3.5z M28.5,8.7l9,9    c-2.9,1.4-9.6,5.7-15.8,16c-3.2-3.2-6-6-9.2-9.2C22.8,18.3,27.1,11.6,28.5,8.7z M20.8,39.3c-0.7,0.7-2,0.7-2.7,0L7,28.1    c-0.7-0.7-0.7-1.9,0-2.7c0.1-0.1,1.6-2.1,3.2-0.5c3.9,3.9,7.2,7.2,11.1,11.1l0,0l0,0C22.9,37.6,20.9,39.2,20.8,39.3z M29,27.2    c0.7-0.8,1.4-1.5,2.1-2.2l9.2,9.2l-2.2,2.2L29,27.2z M62.5,58.6c-1.3,1.3-3.5,1.3-4.7,0L38.3,39.1c0.1-0.1,5.1-5.1,4.7-4.7    l19.5,19.5C63.8,55.1,63.8,57.3,62.5,58.6z" />
      </g>
      <g>
         <path
            d="M34.3,55.6h-0.2v-3.4c0-1.8-1.5-3.3-3.3-3.3H7.3c-1.8,0-3.3,1.5-3.3,3.3v3.4H3.8c-1.8,0-3.3,1.5-3.3,3.3v5.5    c0,0.6,0.4,1,1,1h35.2c0.6,0,1-0.4,1-1v-5.5C37.7,57.1,36.2,55.6,34.3,55.6z M6,52.2c0-0.7,0.6-1.3,1.3-1.3h23.5    c2.1,0,1.1,3,1.3,4.7H6V52.2z M35.7,63.5H2.5v-4.5c0-0.7,0.6-1.3,1.3-1.3c7.6,0,22.9,0,30.5,0c0.7,0,1.3,0.6,1.3,1.3V63.5z" />
      </g>
   </g></svg>  