<?xml version="1.0" encoding="UTF-8" standalone="no"?>
<!-- Created with Inkscape (http://www.inkscape.org/) -->

<svg
   width="300"
   height="200"
   viewBox="0 0 79.374998 52.916668"
   version="1.1"
   id="svg5"
   inkscape:version="1.1.1 (3bf5ae0d25, 2021-09-20)"
   sodipodi:docname="pesquisaMercado.svg"
   xmlns:inkscape="http://www.inkscape.org/namespaces/inkscape"
   xmlns:sodipodi="http://sodipodi.sourceforge.net/DTD/sodipodi-0.dtd"
   xmlns="http://www.w3.org/2000/svg"
   xmlns:svg="http://www.w3.org/2000/svg">
  <sodipodi:namedview
     id="namedview7"
     pagecolor="#505050"
     bordercolor="#eeeeee"
     borderopacity="1"
     inkscape:pageshadow="0"
     inkscape:pageopacity="0"
     inkscape:pagecheckerboard="0"
     inkscape:document-units="mm"
     showgrid="false"
     units="px"
     showguides="true"
     inkscape:guide-bbox="true"
     inkscape:zoom="1.184265"
     inkscape:cx="130.88287"
     inkscape:cy="25.754371"
     inkscape:window-width="1366"
     inkscape:window-height="697"
     inkscape:window-x="-8"
     inkscape:window-y="-8"
     inkscape:window-maximized="1"
     inkscape:current-layer="layer1" />
  <defs
     id="defs2" />
  <g
     inkscape:label="Camada 1"
     inkscape:groupmode="layer"
     id="layer1">
    <path
       style="fill:#e6d11f;stroke:none;stroke-width:0.0594301;fill-opacity:1"
       d="m 28.385648,11.277461 c -0.701287,0.100465 -1.370691,0.320774 -1.961195,0.718621 -0.486762,0.327947 -0.889175,0.730361 -1.217122,1.217123 -2.116147,3.140894 0.624165,7.301823 4.307489,6.817289 0.613301,-0.0807 1.199894,-0.300835 1.723473,-0.625502 3.82843,-2.373788 1.704219,-8.780332 -2.852645,-8.127531 m 21.632566,-1.82e-4 c -0.699434,0.0952 -1.365527,0.303096 -1.961195,0.692618 -0.489288,0.319942 -0.937154,0.752386 -1.256055,1.243308 -2.071794,3.189537 0.611476,7.304081 4.346422,6.817289 0.567201,-0.07393 1.114493,-0.287583 1.604613,-0.578017 3.910443,-2.316795 1.861174,-8.800663 -2.733785,-8.175198 m -18.72049,6.749766 c -0.0093,-0.448876 -0.140077,-0.880143 -0.403471,-1.248032 -0.148041,-0.206823 -0.459157,-0.404607 -0.52774,-0.653732 -0.06002,-0.217942 0.197546,-0.467322 0.283363,-0.653732 0.153211,-0.332963 0.21377,-0.706124 0.153033,-1.069742 -0.28473,-1.705365 -2.480929,-2.210996 -3.491312,-0.831974 -0.367195,0.501163 -0.478585,1.197963 -0.247628,1.782856 0.0831,0.210443 0.36644,0.482484 0.359422,0.707843 -0.0072,0.22962 -0.425265,0.530859 -0.556789,0.718481 -0.270146,0.385362 -0.356777,0.794937 -0.442149,1.248032 -0.670247,-0.494756 -0.905738,-1.41045 -0.965507,-2.198915 -0.05091,-0.671387 0.125059,-1.316674 0.449209,-1.901764 1.323817,-2.389514 4.995547,-2.14409 6.108673,0.297151 0.475322,1.042529 0.478413,3.195439 -0.719104,3.803528 m 21.632566,0 c -0.08534,-0.453095 -0.171991,-0.86267 -0.442161,-1.248032 -0.131518,-0.187622 -0.549609,-0.488855 -0.5568,-0.718481 -0.007,-0.225353 0.27635,-0.4974 0.359433,-0.707843 0.230946,-0.584887 0.119573,-1.281699 -0.247586,-1.782856 -1.010431,-1.379022 -3.206612,-0.873391 -3.491342,0.831974 -0.06073,0.363624 -1.78e-4,0.736774 0.153033,1.069742 0.08582,0.18641 0.343388,0.435796 0.283363,0.653732 -0.06858,0.249119 -0.379699,0.446909 -0.52774,0.653732 -0.263394,0.367889 -0.39414,0.799156 -0.403471,1.248032 -1.197516,-0.608089 -1.194426,-2.760999 -0.719104,-3.803528 1.113126,-2.441249 4.784839,-2.686656 6.108704,-0.297151 0.324131,0.585084 0.500104,1.230383 0.449173,1.901764 -0.05979,0.788465 -0.29525,1.704159 -0.965502,2.198915 m -18.661059,-4.81384 c 0,0.227665 -0.102518,0.792536 0.09527,0.94923 0.249963,0.198003 0.94488,0.155588 1.271626,0.271887 0.865481,0.30802 1.621967,0.918861 2.113573,1.690959 0.142276,0.223433 0.541527,0.768925 0.420766,1.051081 -0.121951,0.28479 -1.284167,0.395805 -1.583457,0.498797 -1.209581,0.416189 -2.32253,1.110868 -3.268657,1.966603 -1.37557,1.24411 -2.296618,2.952429 -2.72606,4.744307 -0.136333,0.568984 -0.160342,1.146169 -0.228479,1.723473 -0.02469,0.209253 0.04064,0.5111 -0.07805,0.695155 -0.11504,0.178409 -0.408939,0.209788 -0.592649,0.282471 -0.398462,0.157609 -0.782083,0.353312 -1.129173,0.605653 -1.337036,0.972098 -2.13492,2.527563 -2.139485,4.181443 0.227659,0 0.792537,0.102518 0.94923,-0.09527 0.198004,-0.249963 0.155588,-0.94488 0.271887,-1.271627 0.30802,-0.86548 0.918861,-1.621966 1.690959,-2.113572 0.223434,-0.142276 0.768919,-0.541527 1.051082,-0.420766 0.168781,0.07232 0.178112,0.360622 0.208837,0.513715 0.09348,0.465575 0.228271,0.925623 0.404125,1.366893 0.539745,1.354471 1.382463,2.652544 2.496066,3.607408 2.217932,1.901764 5.102551,2.655814 7.963636,2.152321 0.607614,-0.106915 1.213563,-0.294357 1.782904,-0.530592 0.247229,-0.102576 0.604344,-0.387959 0.874514,-0.381482 0.175616,0.0043 0.320745,0.210383 0.433187,0.322884 0.622114,0.62253 0.243247,0.826138 -0.297389,1.366774 v 0.05943 l 0.653732,0.653731 h 0.05943 c 0.187562,-0.187561 0.547055,-0.709833 0.832022,-0.709833 0.205509,0 0.404303,0.282234 0.534871,0.412683 l 1.248033,1.248032 0.950882,0.950882 c 1.296765,1.296766 2.79173,3.365647 4.87327,2.418093 0.281104,-0.128012 0.547232,-0.29822 0.762251,-0.521678 2.285148,-2.375006 -1.326064,-4.956293 -2.842306,-6.472534 l -1.307462,-1.307463 c -0.130449,-0.130568 -0.412683,-0.329362 -0.412683,-0.534871 0,-0.284968 0.522272,-0.64446 0.709833,-0.832022 v -0.05943 l -0.653731,-0.653732 h -0.05943 c -0.539092,0.53909 -0.746146,0.92188 -1.366774,0.29721 -0.113393,-0.114106 -0.318546,-0.264107 -0.322884,-0.441269 -0.01136,-0.467061 0.53184,-1.226579 0.677859,-1.698275 0.222923,-0.720234 0.312662,-1.454374 0.400559,-2.198915 0.02989,-0.253707 -0.04915,-0.586575 0.05278,-0.823463 0.09556,-0.221972 0.417496,-0.253173 0.617895,-0.332453 0.447034,-0.176864 0.86459,-0.403887 1.248033,-0.694203 1.272458,-0.963481 2.016226,-2.501117 2.020624,-4.092893 -0.227677,0 -0.79256,-0.102518 -0.949218,0.09527 -0.198021,0.249962 -0.155588,0.944879 -0.271893,1.271626 -0.308026,0.86548 -0.918848,1.621967 -1.690965,2.113572 -0.223457,0.142276 -0.768907,0.541527 -1.051081,0.420766 -0.28479,-0.121951 -0.395805,-1.284166 -0.498797,-1.583457 -0.416189,-1.209581 -1.110868,-2.322529 -1.966603,-3.268656 -1.24411,-1.37557 -2.952429,-2.296618 -4.744307,-2.726061 -0.568984,-0.136332 -1.146169,-0.160341 -1.723473,-0.228479 -0.209313,-0.02469 -0.511099,0.04064 -0.695155,-0.07805 -0.178408,-0.11504 -0.209788,-0.408939 -0.282471,-0.592649 -0.157672,-0.398456 -0.353317,-0.782072 -0.605657,-1.129168 -0.972099,-1.337029 -2.527563,-2.134926 -4.181444,-2.139484 m -5.527002,0.495891 c 1.196655,-0.184352 1.56076,1.738562 0.356581,1.928043 -1.295928,0.203911 -1.65611,-1.727836 -0.356581,-1.928043 m 21.632566,-0.0017 c 1.187413,-0.146288 1.48926,1.74217 0.297151,1.929737 -1.315427,0.206967 -1.61751,-1.767082 -0.297151,-1.929742 m -21.751426,2.970632 c 0.922872,-0.136303 1.711831,0.538503 1.723242,1.467871 0.0022,0.174903 0.05103,0.462842 -0.06085,0.612011 -0.159375,0.212522 -0.644877,0.274211 -0.8898,0.312781 -0.499065,0.07857 -1.551026,0.104479 -1.925335,-0.309631 -0.162351,-0.179598 -0.09413,-0.518587 -0.06021,-0.734022 0.105268,-0.668469 0.501602,-1.243943 1.212951,-1.34901 m 21.573136,0.0016 c 0.88432,-0.155006 1.595402,0.433756 1.738034,1.287928 0.03821,0.228627 0.123436,0.601077 -0.0504,0.793451 -0.188929,0.208957 -0.593588,0.252875 -0.855616,0.299172 -0.469914,0.08302 -1.629515,0.137759 -1.95953,-0.302321 -0.556147,-0.74151 0.410068,-1.95247 1.127509,-2.07823 m -2.258345,8.538403 -1.010313,0.178291 c -0.302558,-2.342974 -1.876565,-4.360567 -3.922388,-5.465908 -0.635546,-0.343447 -1.364753,-0.598878 -2.080054,-0.706862 -0.3337,-0.05034 -1.001814,0.02722 -1.271805,-0.18768 -0.18982,-0.151071 -0.185184,-0.663716 -0.213948,-0.890025 3.031531,0 5.824092,1.374677 7.401903,4.041248 0.570173,0.963659 0.820135,1.962442 1.096605,3.030936 m -9.508821,-7.012755 0.178291,1.010313 c -2.342973,0.302558 -4.360508,1.876565 -5.465908,3.922388 -0.343447,0.635546 -0.598877,1.364753 -0.706861,2.080054 -0.05034,0.333701 0.02722,1.001814 -0.18768,1.271805 -0.151072,0.18982 -0.663716,0.185184 -0.890026,0.213948 0,-3.03153 1.374678,-5.824092 4.041248,-7.401902 0.9636,-0.570174 1.962443,-0.820136 3.030936,-1.096606 m 0.475442,1.918761 c 5.452892,-0.669658 9.171553,5.749509 5.905572,10.145555 -0.49024,0.659912 -1.10136,1.224736 -1.804894,1.65192 -0.775979,0.471102 -1.653643,0.775801 -2.555495,0.886579 -5.452892,0.669658 -9.171554,-5.749509 -5.905572,-10.145555 0.490239,-0.659912 1.10136,-1.224795 1.804893,-1.65192 0.77598,-0.471102 1.653644,-0.775801 2.555496,-0.886579 m -0.713162,7.82778 h -0.950882 v -2.436635 h -2.971506 v 3.387517 h 10.816282 v -5.348711 h -2.971506 v 4.397829 h -0.950882 v -4.457259 c 0,-0.481325 0.177103,-1.390606 -0.03583,-1.823435 -0.09812,-0.199329 -0.437406,-0.13776 -0.617895,-0.13776 h -1.664044 c -0.166583,0 -0.473955,-0.05456 -0.592637,0.09527 -0.240395,0.30351 -0.0611,1.306631 -0.0611,1.687638 v 4.635549 m 1.961194,-5.408141 v 5.408141 h -0.950882 v -5.408141 h 0.950882 m 3.922388,1.961194 v 3.446947 H 43.124317 V 24.50487 h 0.950882 m 3.922389,1.723474 c 0,1.47773 -0.248418,2.906727 -0.969424,4.219539 -2.307434,4.201531 -7.827482,5.622862 -11.867483,3.049062 -2.147864,-1.368378 -3.131017,-3.413132 -3.744099,-5.782848 l 1.010313,-0.178291 c 0.769323,5.957217 8.431589,8.28242 12.505525,4.031146 0.829584,-0.86566 1.481652,-1.919712 1.807924,-3.080263 0.113095,-0.402283 0.210917,-0.830537 0.241642,-1.248033 0.01652,-0.223873 -0.02258,-0.610229 0.125576,-0.796364 0.151071,-0.18982 0.663716,-0.185184 0.890026,-0.213948 m -11.767165,0.23772 v 1.485753 h -0.950882 v -1.485753 h 0.950882 m 11.826595,6.121303 v 0.05943 l -2.198915,2.198915 h -0.05943 L 45.085511,34.01369 c 0.823583,-0.610466 1.529018,-1.315902 2.139484,-2.139484 l 0.832022,0.713162 m -19.255361,0.268247 c -0.88785,0.05574 -1.690156,0.268803 -2.436635,0.772948 -3.62979,2.451375 -1.540252,8.343336 2.793216,8.046245 0.666509,-0.04565 1.318279,-0.24509 1.901765,-0.569103 3.818622,-2.120229 2.25561,-8.533691 -2.258346,-8.25009 m 19.968523,0.444894 4.041249,4.041249 c 0.655752,0.655751 1.391318,1.363861 0.981666,2.377205 -0.376193,0.930556 -1.601047,1.267287 -2.40799,0.67673 -0.611416,-0.447509 -1.128875,-1.092444 -1.664043,-1.627612 l -3.209219,-3.209189 v -0.05943 l 2.258345,-2.198915 M 31.29773,39.659571 c -0.0064,-0.758804 -0.390396,-1.464775 -1.010312,-1.901765 0.169911,-0.625323 0.610347,-1.010906 0.523936,-1.723473 -0.309334,-2.550741 -4.284598,-1.918523 -3.833315,0.594301 0.07027,0.391289 0.274176,0.704307 0.516163,1.010313 v 0.05943 c -0.606758,0.606841 -0.91126,1.120021 -1.069743,1.961194 -0.571663,-0.534395 -0.902666,-1.305739 -0.955743,-2.080054 -0.04478,-0.653196 0.04201,-1.314891 0.348647,-1.901764 0.268107,-0.51312 0.66188,-0.952367 1.141968,-1.276559 1.357271,-0.916531 3.332722,-0.712449 4.446918,0.504859 1.11176,1.214573 1.358454,3.673079 -0.108519,4.753518 m -2.674355,-4.314984 c 1.256869,-0.288652 1.739887,1.604673 0.475441,1.896891 -1.197446,0.276707 -1.685047,-1.619055 -0.475441,-1.896891 m 0.05943,2.906608 c 0.936298,-0.133777 2.265358,1.131847 1.602962,2.091881 -0.147738,0.214127 -0.592193,0.274567 -0.830371,0.308977 -0.511562,0.07394 -1.609344,0.143345 -1.984764,-0.304222 -0.151885,-0.181084 -0.09136,-0.475798 -0.06085,-0.688261 0.102588,-0.714469 0.509346,-1.299261 1.273023,-1.408375 z"
       id="path1513" />
  </g>
</svg>
