<?xml version="1.0" encoding="UTF-8" standalone="no"?>
<!-- Created with Inkscape (http://www.inkscape.org/) -->

<svg
   width="200"
   height="300"
   viewBox="0 0 52.916666 79.375002"
   version="1.1"
   id="svg5"
   inkscape:version="1.1.1 (3bf5ae0d25, 2021-09-20)"
   sodipodi:docname="tradicao.svg"
   xmlns:inkscape="http://www.inkscape.org/namespaces/inkscape"
   xmlns:sodipodi="http://sodipodi.sourceforge.net/DTD/sodipodi-0.dtd"
   xmlns="http://www.w3.org/2000/svg"
   xmlns:svg="http://www.w3.org/2000/svg">
  <sodipodi:namedview
     id="namedview7"
     pagecolor="#505050"
     bordercolor="#eeeeee"
     borderopacity="1"
     inkscape:pageshadow="0"
     inkscape:pageopacity="0"
     inkscape:pagecheckerboard="0"
     inkscape:document-units="mm"
     showgrid="false"
     units="px"
     inkscape:zoom="1.184265"
     inkscape:cx="105.5507"
     inkscape:cy="137.21591"
     inkscape:window-width="1366"
     inkscape:window-height="697"
     inkscape:window-x="-8"
     inkscape:window-y="-8"
     inkscape:window-maximized="1"
     inkscape:current-layer="layer1" />
  <defs
     id="defs2">
    <filter
       inkscape:label="Cross Noise"
       inkscape:menu="Overlays"
       inkscape:menu-tooltip="Adds a small scale screen like graininess"
       style="color-interpolation-filters:sRGB;"
       id="filter8749"
       x="0"
       y="0"
       width="1"
       height="1">
      <feTurbulence
         type="fractalNoise"
         numOctaves="5"
         baseFrequency="1"
         seed="0"
         result="result0"
         id="feTurbulence8737" />
      <feConvolveMatrix
         kernelMatrix="-2 0 -2 0 -10 0 -2 0 -2 "
         order="3 3"
         result="result5"
         id="feConvolveMatrix8739" />
      <feColorMatrix
         result="result4"
         values="0"
         type="saturate"
         in="result5"
         id="feColorMatrix8741" />
      <feComposite
         in2="result4"
         in="SourceGraphic"
         operator="arithmetic"
         k1="1.5"
         k2="0.5"
         k3="0.5"
         result="result2"
         id="feComposite8743" />
      <feBlend
         result="result6"
         in2="result4"
         mode="normal"
         id="feBlend8745" />
      <feComposite
         in2="SourceGraphic"
         in="result6"
         operator="in"
         result="result3"
         id="feComposite8747" />
    </filter>
  </defs>
  <g
     inkscape:label="Camada 1"
     inkscape:groupmode="layer"
     id="layer1">
    <rect
       style="fill:#05285b;stroke-width:0.0556645;stroke-linecap:round;stroke-linejoin:round"
       id="rect846"
       width="52.916668"
       height="79.375"
       x="-6.357829e-07"
       y="0" />
    <rect
       style="opacity:0.593592;fill:#05285b;stroke-width:2.42387;stroke-linecap:round;stroke-linejoin:round;filter:url(#filter8749)"
       id="rect8639"
       width="2304.2188"
       height="3456.3281"
       x="-1125.6511"
       y="-1688.4766"
       transform="matrix(0.02296512,0,0,0.02296512,25.850716,38.776072)" />
    <path
       style="fill:#e6d11f;fill-opacity:1;stroke:none;stroke-width:0.0424627"
       d="m 19.791821,31.042351 c -1.566407,0.03337 -1.656045,1.59059 -1.656045,2.760075 0,0.523268 -0.01081,1.033754 0.189083,1.528657 0.335044,0.829592 1.023946,1.477913 1.891586,1.722795 0.277625,0.07835 0.773079,4.82e-4 1.002544,0.146751 0.162635,0.103694 0.257199,0.39087 0.358517,0.550827 0.21864,0.34518 0.47435,0.685559 0.763731,0.974985 0.419999,0.419999 0.920294,0.769678 1.442076,1.050102 0.21329,0.114608 0.674775,0.198173 0.805602,0.40709 0.180888,0.288789 0.04365,1.009339 0.04365,1.347001 -1.152522,0 -2.067214,0.538554 -2.165599,1.783433 -0.779442,0 -2.107635,-0.260636 -2.658571,0.425263 -0.465362,0.579362 -0.228892,1.802287 -0.228892,2.504662 -1.102225,0 -2.305265,-0.137877 -3.397014,0.008 -0.348136,0.04654 -0.60034,0.365009 -0.588809,0.713883 0.01436,0.434945 0.43553,0.738383 0.7162,1.019104 0.101506,0.101528 0.337338,0.265264 0.337338,0.424626 0,0.171847 -0.257855,0.329341 -0.367679,0.436135 -0.415192,0.40365 -1.080521,1.060251 -0.393632,1.583815 0.397686,0.303141 1.223504,0.145648 1.697854,0.145648 h 4.033955 c 0.557916,0 1.22318,0.102631 1.648186,-0.343651 0.54535,-0.572694 0.305093,-1.815365 0.305093,-2.543812 h 5.774928 c 0,0.728447 -0.240258,1.971118 0.305092,2.543812 0.425011,0.446282 1.090274,0.343651 1.648191,0.343651 h 4.033954 c 0.474432,0 1.30008,0.157451 1.697867,-0.145648 0.678851,-0.51728 0.03603,-1.186916 -0.381524,-1.594685 -0.100088,-0.09775 -0.382803,-0.267727 -0.3952,-0.420508 -0.01217,-0.149554 0.259107,-0.335795 0.352733,-0.429383 0.280723,-0.280637 0.701825,-0.584202 0.716223,-1.019104 0.01151,-0.348874 -0.240682,-0.667344 -0.588832,-0.713883 -1.091758,-0.14586 -2.294811,-0.008 -3.397012,-0.008 0,-0.702375 0.236474,-1.9253 -0.228876,-2.504662 -0.550952,-0.685899 -1.879141,-0.425263 -2.658588,-0.425263 -0.09885,-1.250993 -1.008996,-1.783433 -2.165595,-1.783433 0,-0.337662 -0.13724,-1.058212 0.04365,-1.347001 0.130832,-0.208917 0.592316,-0.292482 0.805602,-0.40709 0.518896,-0.278852 1.027343,-0.626537 1.439913,-1.050102 0.287005,-0.294604 0.546028,-0.627895 0.765898,-0.974985 0.101314,-0.159957 0.195877,-0.447133 0.358512,-0.550827 0.229466,-0.146326 0.72492,-0.06841 1.002544,-0.146751 0.871165,-0.245858 1.554769,-0.888871 1.891581,-1.722795 0.199875,-0.494903 0.189088,-1.005389 0.189088,-1.528657 0,-1.169995 -0.08998,-2.727574 -1.656044,-2.760075 0.52569,-0.924781 -0.02049,-2.092401 -1.104027,-2.200818 -1.815283,-0.181626 -3.737355,-0.0072 -5.562614,-0.0072 -1.825257,0 -3.74733,-0.174385 -5.562612,0.0072 -1.078686,0.107927 -1.625287,1.283812 -1.104028,2.200818 m 1.104028,-1.472201 c 0.984417,-0.176171 2.141269,-0.014 3.142241,-0.014 h 6.411863 c 0.507856,0 1.270485,-0.141266 1.740803,0.0651 0.480378,0.210781 0.573584,0.893792 0.165558,1.22755 -0.247134,0.202156 -0.589803,0.151077 -0.887256,0.151077 h -1.910822 -6.199549 -1.783431 c -0.265607,0 -0.599319,0.05289 -0.849211,-0.05216 -0.650358,-0.273406 -0.505391,-1.256748 0.169804,-1.377579 m 0.04246,6.864963 c -0.91656,-0.01894 -1.740448,-0.647047 -1.999449,-1.528657 -0.128315,-0.43677 -0.08122,-0.908319 -0.08122,-1.358804 0,-0.374861 -0.07239,-0.837999 0.08361,-1.188955 0.224502,-0.50504 0.731977,-0.636907 1.232728,-0.636941 0.123569,-9e-6 0.337495,-0.03871 0.441483,0.04364 0.192997,0.152858 0.06807,0.95334 0.06807,1.187775 0,0.726792 -0.06191,1.484666 0.0072,2.20806 0.04154,0.434563 0.184583,0.845941 0.247554,1.27388 m 0.523059,-4.687731 c 0.170908,-0.08411 0.478894,-0.02562 0.665898,-0.02562 h 1.528654 5.477688 1.698507 c 0.166837,0 0.515924,-0.06556 0.653798,0.04364 0.1197,0.09483 0.06807,0.374586 0.06807,0.508373 v 1.401269 c 0,2.301986 -0.622118,4.405334 -2.844996,5.509618 -2.772646,1.377447 -6.337048,-0.139533 -7.138659,-3.174171 -0.277067,-1.048914 -0.207386,-2.151159 -0.207386,-3.227163 0,-0.204102 -0.110405,-0.933186 0.09843,-1.035945 m 10.517237,4.687734 c 0.06298,-0.427938 0.206029,-0.839316 0.247559,-1.27388 0.06913,-0.723394 0.0072,-1.481268 0.0072,-2.208059 0,-0.234441 -0.124926,-1.034913 0.06807,-1.187776 0.103992,-0.08235 0.317918,-0.04366 0.441484,-0.04364 0.510276,3.4e-5 0.992225,0.133833 1.229339,0.63694 0.163015,0.345927 0.087,0.816556 0.087,1.188955 0,0.384881 0.05189,0.812693 -0.03817,1.188954 -0.229554,0.959233 -1.041736,1.677828 -2.042499,1.698507 m -9.554029,-3.959311 c -0.451717,0.07303 -0.323732,0.776315 0.127133,0.675551 0.411721,-0.09204 0.294311,-0.743691 -0.127133,-0.675551 m -0.124926,1.497671 c -0.24178,0.13189 -0.172352,0.491802 -0.172352,0.720677 0,0.707937 0.178853,1.365854 0.499188,1.995745 0.130661,0.2569 0.365476,0.724797 0.729893,0.538343 0.194012,-0.09924 0.228026,-0.31121 0.143439,-0.49588 -0.204838,-0.447386 -0.470191,-0.82335 -0.574053,-1.316344 -0.08301,-0.394094 0.01282,-0.855537 -0.110743,-1.229719 -0.06934,-0.21002 -0.311763,-0.323905 -0.515372,-0.212822 m 5.262869,6.368214 v 1.188955 h -2.208061 v -1.188955 h 2.208061 m 2.165599,2.972387 h -6.539254 c 0.03773,-0.461654 0.299192,-0.894348 0.764327,-1.028063 0.348408,-0.100127 0.786197,-0.0335 1.14649,-0.0335 h 2.292986 c 0.485263,0 1.103266,-0.101528 1.57112,0.0335 0.462885,0.133629 0.726833,0.569467 0.764331,1.028063 m 2.88746,3.651791 H 20.301362 v -2.038209 c 0,-0.24208 -0.06952,-0.608193 0.137069,-0.784965 0.183397,-0.1569 0.489173,-0.106751 0.712186,-0.106751 h 1.740969 6.921418 1.910817 c 0.23257,0 0.563438,-0.05685 0.754649,0.106751 0.20658,0.176772 0.137069,0.542885 0.137069,0.784965 v 2.038209 m -9.511003,-1.798167 c -0.324327,0.104967 -0.334607,0.570741 0,0.669806 0.469255,0.13898 1.124409,0.02433 1.612943,0.02433 h 3.524404 c 0.416899,0 1.343051,0.172738 1.688828,-0.0789 0.194901,-0.141869 0.168234,-0.465349 -0.03743,-0.581102 -0.27104,-0.152568 -0.754605,-0.06187 -1.056939,-0.06187 h -3.94903 c -0.530317,0 -1.277576,-0.135795 -1.782796,0.02772 m -3.525039,1.798167 c 6.5e-5,0.594647 0.38123,0.838128 0.806788,1.206959 0.589213,0.510699 1.37622,1.043903 1.825899,1.680504 H 16.30985 c 0.309671,-0.439617 1.169669,-0.889807 1.140331,-1.486195 -0.02811,-0.571717 -0.794624,-0.970782 -1.09787,-1.401268 h 3.227166 m 16.985071,0 c -0.303228,0.430486 -1.069761,0.829551 -1.097874,1.401268 -0.02933,0.596388 0.830656,1.046578 1.140336,1.486195 h -5.902313 c 0.450234,-0.633883 1.237705,-1.170697 1.825897,-1.680504 0.426535,-0.369638 0.806706,-0.609807 0.80679,-1.206959 h 3.227164 m -13.715444,0.721865 v 1.698508 l -0.721866,-0.587426 -1.188957,-1.111079 h 1.910822 m 9.129474,0 -1.188953,1.111079 -0.721869,0.587429 v -1.698508 z"
       id="path1348" />
  </g>
</svg>
