<?xml version="1.0" encoding="UTF-8" standalone="no"?>
<!-- Created with Inkscape (http://www.inkscape.org/) -->

<svg
   width="300"
   height="200"
   viewBox="0 0 79.374998 52.916668"
   version="1.1"
   id="svg5"
   inkscape:version="1.1.1 (3bf5ae0d25, 2021-09-20)"
   sodipodi:docname="web.svg"
   xmlns:inkscape="http://www.inkscape.org/namespaces/inkscape"
   xmlns:sodipodi="http://sodipodi.sourceforge.net/DTD/sodipodi-0.dtd"
   xmlns="http://www.w3.org/2000/svg"
   xmlns:svg="http://www.w3.org/2000/svg">
  <sodipodi:namedview
     id="namedview7"
     pagecolor="#505050"
     bordercolor="#eeeeee"
     borderopacity="1"
     inkscape:pageshadow="0"
     inkscape:pageopacity="0"
     inkscape:pagecheckerboard="0"
     inkscape:document-units="mm"
     showgrid="false"
     units="px"
     showguides="true"
     inkscape:guide-bbox="true"
     inkscape:zoom="1.184265"
     inkscape:cx="97.951053"
     inkscape:cy="42.642484"
     inkscape:window-width="1366"
     inkscape:window-height="697"
     inkscape:window-x="-8"
     inkscape:window-y="-8"
     inkscape:window-maximized="1"
     inkscape:current-layer="layer1">
    <sodipodi:guide
       position="55.169418,41.94025"
       orientation="0,-1"
       id="guide896" />
    <sodipodi:guide
       position="55.169418,10.976416"
       orientation="0,-1"
       id="guide898" />
  </sodipodi:namedview>
  <defs
     id="defs2" />
  <g
     inkscape:label="Camada 1"
     inkscape:groupmode="layer"
     id="layer1">
    <path
       style="fill:#002878;stroke:none;stroke-width:0.0728826;fill-opacity:1"
       d="m 35.969065,13.558124 c -0.765122,0.771477 -1.419681,1.653926 -1.912732,2.623775 -0.214202,0.421335 -0.45916,1.356565 -0.872405,1.601378 -0.292915,0.173533 -0.821679,0.07492 -1.150525,0.07492 h -2.623776 c 0.415504,-0.545308 1.336231,-1.087336 1.531411,-1.749184 0.132719,-0.449904 -0.333366,-0.750472 -0.729701,-0.601792 -0.559593,0.209975 -1.123122,0.96278 -1.509692,1.403502 -0.860554,0.981073 -1.592777,2.099311 -2.150409,3.279719 -0.2073,0.438826 -0.389317,1.48615 -0.805988,1.747142 -0.254338,0.159322 -0.712413,0.07492 -1.00011,0.07492 h -2.405127 c -0.326128,0 -0.799117,-0.08272 -1.076594,0.126961 -0.44082,0.333147 -0.235294,1.423398 -0.235294,1.913753 v 4.883137 c 0,0.469437 -0.18216,1.430905 0.17737,1.790435 0.245755,0.24576 0.673127,0.177396 0.988753,0.177396 h 2.550892 c 0.298987,0 0.814216,-0.09722 1.05607,0.116831 0.394565,0.349254 0.566101,1.297384 0.788546,1.778118 0.456151,0.985811 1.082818,1.922572 1.759358,2.769541 2.98316,3.734506 7.682778,5.711885 12.430208,5.386756 4.168158,-0.285408 8.101926,-2.462996 10.576438,-5.824052 0.566371,-0.769276 1.108035,-1.600503 1.491179,-2.47801 0.193066,-0.442179 0.36332,-1.313127 0.724016,-1.632353 0.230528,-0.203998 0.698799,-0.116831 0.983187,-0.116831 h 2.47801 c 0.369077,0 0.929764,0.102328 1.184926,-0.235265 0.302608,-0.40049 0.126961,-1.325808 0.126961,-1.805449 v -4.810254 c 0,-0.490355 0.205529,-1.580606 -0.235265,-1.913753 -0.340216,-0.257057 -1.81004,-0.268208 -2.138231,0.01108 -0.463169,0.394004 0.02544,0.923642 0.478548,0.951994 0.265584,0.01662 0.535614,0.0032 0.801709,0.0032 v 6.705204 h -6.705204 v -6.705204 h 2.623776 c 0.325421,0 0.750909,0.05772 0.976408,-0.235265 0.137384,-0.178562 0.13702,-0.444074 0,-0.622709 -0.162018,-0.210995 -0.45865,-0.202468 -0.623438,-0.403916 -0.323745,-0.395534 -0.469728,-1.109419 -0.675403,-1.580533 -1.460933,-3.346115 -4.480534,-6.016338 -7.840424,-7.346301 -3.138837,-1.242467 -6.790767,-1.311064 -9.984922,-0.233217 -0.854986,0.288521 -1.699477,0.647154 -2.477937,1.104209 -0.317841,0.186623 -0.731304,0.507635 -0.496914,0.926498 0.231257,0.413209 0.683858,0.228699 1.00702,0.06372 0.937125,-0.478446 1.880445,-0.980702 2.915305,-1.220114 m 3.133954,-0.510179 c 0.412662,1.396191 0.07288,3.351363 0.07288,4.810255 H 34.51141 c 0.385767,-2.163959 2.564303,-4.239219 4.591606,-4.810255 m 5.757729,4.810255 h -4.664489 c 0,-1.458892 -0.339779,-3.414064 0.07288,-4.810255 2.027304,0.571036 4.205839,2.646296 4.591607,4.810255 m -1.38477,-4.300076 c 2.279842,0.659792 5.257389,2.173652 6.486555,4.300076 h -2.623775 l -1.150525,-0.04395 -0.616661,-1.049292 -1.269469,-2.113596 -0.826125,-1.09324 M 32.835112,18.95144 32.179168,22.012511 H 27.0045 c 0.187177,-0.78983 0.806301,-2.564813 1.544019,-2.986148 0.329211,-0.188037 0.930128,-0.07492 1.298404,-0.07492 h 2.988189 m 6.34079,3.061071 h -5.903494 c 0.05896,-0.740707 0.296486,-1.470481 0.483139,-2.18648 0.06472,-0.248311 0.117632,-0.645886 0.349107,-0.799668 0.216025,-0.143579 0.597638,-0.07492 0.844054,-0.07492 h 2.040714 c 0.412589,0 1.843713,-0.221345 2.111556,0.11683 0.151159,0.190807 0.07492,0.603104 0.07492,0.830644 v 2.113597 m 6.923851,0 H 40.196255 V 19.89892 c 0,-0.227467 -0.07624,-0.639837 0.07492,-0.830644 0.267844,-0.338175 1.698967,-0.11683 2.111556,-0.11683 h 2.040714 c 0.246271,0 0.628249,-0.06873 0.844054,0.07492 0.230747,0.153564 0.272581,0.553617 0.343277,0.799668 0.203634,0.708638 0.430299,1.44898 0.48897,2.18648 m 6.267907,0 h -5.174667 l -0.655944,-3.061071 h 2.988188 c 0.368276,0 0.969194,-0.113114 1.298405,0.07492 0.727004,0.415212 1.359188,2.206085 1.544018,2.986148 m -2.915305,1.093239 v 6.705204 H 34.43853 30.940163 c -0.413755,0 -1.045866,-0.09271 -1.263348,0.365506 -0.143141,0.301588 0.100068,0.614401 0.38985,0.696102 0.623365,0.17572 1.465815,0.03163 2.112503,0.03163 l 0.655944,3.061072 h -2.988189 c -0.368203,0 -0.969193,0.113113 -1.298404,-0.07492 -0.727041,-0.415213 -1.359159,-2.206086 -1.544019,-2.986149 0.266525,-1.45e-4 0.56522,0.03032 0.797438,-0.126961 0.434388,-0.294227 0.248545,-0.807176 -0.214435,-0.934647 -0.522882,-0.144016 -1.208606,-0.03163 -1.749125,-0.03163 H 22.121363 V 23.10575 h 27.330992 m 4.008545,1.272094 c -1.442785,0.196929 -2.124893,1.868492 -1.254383,3.025067 0.35042,0.465574 0.969266,0.715125 1.545914,0.688158 0.250424,-0.01173 0.557989,-0.158447 0.801709,-0.07645 0.344662,0.115811 0.532918,0.564403 0.94711,0.501797 1.033986,-0.156115 -8.02e-4,-1.100018 -0.06399,-1.474999 -0.06283,-0.373305 0.122807,-0.772337 0.05634,-1.166122 -0.157499,-0.932096 -1.084056,-1.626814 -2.032697,-1.497447 m 0.145765,1.091053 c 0.986175,-0.0938 1.134419,1.430905 0.145693,1.540885 -1.004906,0.111875 -1.156721,-1.444753 -0.145693,-1.540885 m -14.430763,5.435296 v 2.113597 c 0,0.22754 0.07624,0.639837 -0.07492,0.830644 -0.267843,0.338176 -1.698967,0.116831 -2.111556,0.116831 h -2.040714 c -0.24627,0 -0.628248,0.06873 -0.844054,-0.07492 -0.230746,-0.153564 -0.272581,-0.553617 -0.343277,-0.799668 -0.203634,-0.708638 -0.430299,-1.44898 -0.488969,-2.18648 h 5.903494 m 6.923851,0 c -0.05867,0.7375 -0.285336,1.477842 -0.48897,2.18648 -0.0707,0.246051 -0.11253,0.646104 -0.343277,0.799668 -0.215805,0.143652 -0.597783,0.07492 -0.844054,0.07492 h -2.040714 c -0.412589,0 -1.843712,0.221345 -2.111556,-0.116831 -0.151158,-0.190807 -0.07492,-0.603177 -0.07492,-0.830644 v -2.113597 h 5.903494 m 6.267907,0 c -0.18483,0.780063 -0.817014,2.570936 -1.544018,2.986149 -0.329211,0.188037 -0.930129,0.07492 -1.298405,0.07492 h -2.988188 l 0.655944,-3.061072 H 52.36767 M 35.969065,39.35858 c -2.274667,-0.475559 -5.377791,-2.255863 -6.559438,-4.300076 h 2.696658 l 1.137407,0.07492 0.849228,1.601378 1.876145,2.623775 m 3.206837,-4.300076 c 0,1.458892 0.339779,3.414042 -0.07288,4.810254 -2.027303,-0.571035 -4.205839,-2.646295 -4.591606,-4.810254 h 4.664489 m 5.684846,0 c -0.386059,2.165853 -2.562991,4.234554 -4.591607,4.810254 -0.412661,-1.396212 -0.07288,-3.351362 -0.07288,-4.810254 h 4.664489 m 5.101785,0 C 48.779507,37.105049 45.6801,38.882583 43.4031,39.35858 l 1.876145,-2.623775 0.849229,-1.601378 1.137406,-0.07492 z"
       id="path3141" />
  </g>
</svg>
